<svg width="523" height="629" viewBox="0 0 523 629" fill="none" xmlns="http://www.w3.org/2000/svg">
<path d="M211.244 0C154.316 0 108 46.3145 108 103.244C108 160.172 154.316 206.487 211.244 206.487C268.173 206.487 314.487 160.173 314.487 103.244C314.487 46.3145 268.173 0 211.244 0Z" fill="#303030"/>
<path d="M319.387 243.939H124.767C55.9706 243.939 0 289.187 0 344.803V542.482C0 575.852 33.5823 603 74.8603 603H252C228.071 575 200.5 518.471 200.5 481.939C200.5 386.191 270.561 320 389 320C419.5 325 430.788 335.228 446 338C439.965 286.9 384.152 243.939 319.387 243.939Z" fill="#303030"/>
<path d="M372.5 337C289.514 337 222 402.495 222 482.999C222 563.504 289.514 629 372.5 629C455.486 629 523 563.505 523 482.999C523 402.496 455.486 337 372.5 337ZM426.622 505.094H395.274V535.504C395.274 547.706 385.077 557.599 372.498 557.599C359.92 557.599 349.723 547.706 349.723 535.504V505.094H318.375C305.797 505.094 295.6 495.201 295.6 482.999C295.6 470.797 305.797 460.905 318.375 460.905H349.723V430.495C349.723 418.293 359.92 408.4 372.498 408.4C385.077 408.4 395.274 418.293 395.274 430.495V460.905H426.622C439.2 460.905 449.397 470.797 449.397 482.999C449.397 495.201 439.2 505.094 426.622 505.094Z" fill="#303030"/>
</svg>
