<svg width="1440" height="1024" viewBox="0 0 1440 1024" fill="none" xmlns="http://www.w3.org/2000/svg">
<g clip-path="url(#clip0)">
<rect width="1440" height="1024" rx="15" fill="white"/>
<path d="M237.528 403.828C154.528 317.828 55.5275 346.828 8.52769 396.828C-38.4721 446.828 -98.4723 552.828 44.5277 560.828C187.528 568.828 237.528 634.828 237.528 634.828C237.528 634.828 320.528 489.828 237.528 403.828Z" fill="#9A0960"/>
<path d="M1146.5 442.013C1173.11 417.268 1164.81 387.054 1149.84 372.518C1134.87 357.982 1102.93 339.2 1099.74 382.577C1096.55 425.954 1076.2 440.785 1076.2 440.785C1076.2 440.785 1119.88 466.757 1146.5 442.013Z" fill="#9A0960"/>
<path d="M203.528 569.828C120.528 483.828 21.5275 512.828 -25.4723 562.828C-72.4721 612.828 -132.472 718.828 10.5277 726.828C153.528 734.828 203.528 800.828 203.528 800.828C203.528 800.828 286.528 655.828 203.528 569.828Z" fill="#F44336"/>
<path d="M599.491 731.729C575.844 707.057 547.64 715.377 534.25 729.721C520.86 744.065 503.766 774.475 544.506 776.77C585.246 779.065 599.491 798 599.491 798C599.491 798 623.137 756.402 599.491 731.729Z" fill="#F44336"/>
<path d="M341.259 578.823C360.324 516.086 319.966 476.502 283.432 467.414C246.898 458.327 180.036 458.022 214.406 528.563C248.776 599.105 230.485 640.699 230.485 640.699C230.485 640.699 322.194 641.559 341.259 578.823Z" fill="#FD8F40"/>
<path d="M749.4 798.238C806.848 766.631 805.59 710.115 785.777 678.103C765.964 646.09 718.307 599.192 693.666 673.692C669.026 748.192 626.891 765.203 626.891 765.203C626.891 765.203 691.951 829.844 749.4 798.238Z" fill="#FD8F40"/>
<path d="M1018.81 882.858C1142.03 1023.56 1298.97 985.725 1376.22 911.129C1453.47 836.533 1555.27 675.389 1332.36 652.063C1109.45 628.737 1036.29 521.792 1036.29 521.792C1036.29 521.792 895.583 742.154 1018.81 882.858Z" fill="#FF9F1C"/>
<path d="M1294.03 415.088C1270.48 437.231 1244.12 428.103 1232.08 413.984C1220.04 399.864 1205.22 370.449 1243.95 370.158C1282.68 369.867 1297.05 352.695 1297.05 352.695C1297.05 352.695 1317.57 392.945 1294.03 415.088Z" fill="#FF9F1C"/>
<path d="M1331.66 558.185C1261.28 504.992 1192.55 537.59 1164.12 579.515C1135.69 621.439 1104.27 705.741 1209.31 695.071C1314.36 684.4 1358.4 726.805 1358.4 726.805C1358.4 726.805 1402.05 611.378 1331.66 558.185Z" fill="#F26666"/>
<path d="M212.921 172.409C189.45 154.671 166.534 165.542 157.053 179.522C147.572 193.501 137.097 221.612 172.123 218.054C207.15 214.496 221.837 228.636 221.837 228.636C221.837 228.636 236.391 190.147 212.921 172.409Z" fill="#F26666"/>
<path d="M1403.26 750.823C1422.32 688.086 1381.97 648.502 1345.43 639.414C1308.9 630.327 1242.04 630.022 1276.41 700.563C1310.78 771.105 1292.48 812.699 1292.48 812.699C1292.48 812.699 1384.19 813.559 1403.26 750.823Z" fill="#700B47"/>
<path d="M312.462 147.678C319.675 123.945 304.407 108.97 290.586 105.532C276.765 102.094 251.471 101.979 264.473 128.665C277.476 155.351 270.556 171.086 270.556 171.086C270.556 171.086 305.25 171.412 312.462 147.678Z" fill="#700B47"/>
</g>
<defs>
<clipPath id="clip0">
<rect width="1440" height="1024" rx="15" fill="white"/>
</clipPath>
</defs>
</svg>
