<svg width="768" height="1024" viewBox="0 0 768 1024" fill="none" xmlns="http://www.w3.org/2000/svg">
<g clip-path="url(#clip0)">
<rect width="768" height="1024" rx="15" fill="white"/>
<path d="M237.528 403.828C154.528 317.828 55.5275 346.828 8.52769 396.828C-38.4721 446.828 -98.4723 552.828 44.5277 560.828C187.528 568.828 237.528 634.828 237.528 634.828C237.528 634.828 320.528 489.828 237.528 403.828Z" fill="#9A0960"/>
<path d="M566.496 532.013C593.109 507.268 584.809 477.054 569.841 462.518C554.874 447.982 522.933 429.2 519.74 472.577C516.547 515.954 496.196 530.785 496.196 530.785C496.196 530.785 539.884 556.757 566.496 532.013Z" fill="#9A0960"/>
<path d="M203.528 569.828C120.528 483.828 21.5275 512.828 -25.4723 562.828C-72.4721 612.828 -132.472 718.828 10.5277 726.828C153.528 734.828 203.528 800.828 203.528 800.828C203.528 800.828 286.528 655.828 203.528 569.828Z" fill="#F44336"/>
<path d="M341.259 578.823C360.324 516.086 319.966 476.502 283.432 467.414C246.898 458.327 180.036 458.022 214.406 528.563C248.776 599.105 230.485 640.699 230.485 640.699C230.485 640.699 322.194 641.559 341.259 578.823Z" fill="#FD8F40"/>
<path d="M438.808 972.858C562.034 1113.56 718.971 1075.72 796.218 1001.13C873.465 926.533 975.271 765.389 752.359 742.063C529.448 718.737 456.29 611.792 456.29 611.792C456.29 611.792 315.583 832.154 438.808 972.858Z" fill="#FF9F1C"/>
<path d="M714.028 505.088C690.485 527.231 664.124 518.103 652.083 503.984C640.042 489.864 625.223 460.449 663.952 460.158C702.68 459.867 717.049 442.695 717.049 442.695C717.049 442.695 737.571 482.945 714.028 505.088Z" fill="#FF9F1C"/>
<path d="M751.662 648.185C681.276 594.992 612.552 627.59 584.12 669.515C555.688 711.439 524.272 795.741 629.314 785.071C734.357 774.4 778.4 816.805 778.4 816.805C778.4 816.805 822.047 701.378 751.662 648.185Z" fill="#F26666"/>
<path d="M212.921 172.409C189.45 154.671 166.534 165.542 157.053 179.522C147.572 193.501 137.097 221.612 172.123 218.054C207.15 214.496 221.837 228.636 221.837 228.636C221.837 228.636 236.391 190.147 212.921 172.409Z" fill="#F26666"/>
<path d="M823.259 840.823C842.324 778.086 801.966 738.502 765.432 729.414C728.898 720.327 662.036 720.022 696.406 790.563C730.776 861.105 712.485 902.699 712.485 902.699C712.485 902.699 804.194 903.559 823.259 840.823Z" fill="#700B47"/>
<path d="M312.462 147.678C319.675 123.945 304.407 108.97 290.586 105.532C276.765 102.094 251.471 101.979 264.473 128.665C277.476 155.351 270.556 171.086 270.556 171.086C270.556 171.086 305.25 171.412 312.462 147.678Z" fill="#700B47"/>
</g>
<defs>
<clipPath id="clip0">
<rect width="768" height="1024" rx="15" fill="white"/>
</clipPath>
</defs>
</svg>
