<svg width="360" height="1500" viewBox="0 0 360 1500" fill="none" xmlns="http://www.w3.org/2000/svg">
<g clip-path="url(#clip0)">
<rect width="360" height="1500" rx="15" fill="white"/>
<path d="M237.528 403.828C154.528 317.828 55.5275 346.828 8.52769 396.828C-38.4721 446.828 -98.4723 552.828 44.5277 560.828C187.528 568.828 237.528 634.828 237.528 634.828C237.528 634.828 320.528 489.828 237.528 403.828Z" fill="#9A0960"/>
<path d="M128.496 953.013C155.109 928.268 146.809 898.054 131.841 883.518C116.874 868.982 84.9331 850.2 81.74 893.577C78.5468 936.954 58.1956 951.785 58.1956 951.785C58.1956 951.785 101.884 977.757 128.496 953.013Z" fill="#9A0960"/>
<path d="M203.528 569.828C120.528 483.828 21.5275 512.828 -25.4723 562.828C-72.4721 612.828 -132.472 718.828 10.5277 726.828C153.528 734.828 203.528 800.828 203.528 800.828C203.528 800.828 286.528 655.828 203.528 569.828Z" fill="#F44336"/>
<path d="M341.259 578.823C360.324 516.086 319.966 476.502 283.432 467.414C246.898 458.327 180.036 458.022 214.406 528.563C248.776 599.105 230.485 640.699 230.485 640.699C230.485 640.699 322.194 641.559 341.259 578.823Z" fill="#FD8F40"/>
<path d="M0.808431 1393.86C124.034 1534.56 280.971 1496.72 358.218 1422.13C435.465 1347.53 537.271 1186.39 314.359 1163.06C91.4475 1139.74 18.2895 1032.79 18.2895 1032.79C18.2895 1032.79 -122.417 1253.15 0.808431 1393.86Z" fill="#FF9F1C"/>
<path d="M276.028 926.088C252.485 948.231 226.124 939.103 214.083 924.984C202.042 910.864 187.223 881.449 225.952 881.158C264.68 880.867 279.049 863.695 279.049 863.695C279.049 863.695 299.571 903.945 276.028 926.088Z" fill="#FF9F1C"/>
<path d="M313.662 1069.18C243.276 1015.99 174.552 1048.59 146.12 1090.51C117.688 1132.44 86.2724 1216.74 191.315 1206.07C296.357 1195.4 340.401 1237.8 340.401 1237.8C340.401 1237.8 384.047 1122.38 313.662 1069.18Z" fill="#F26666"/>
<path d="M212.921 172.409C189.45 154.671 166.534 165.542 157.053 179.522C147.572 193.501 137.097 221.612 172.123 218.054C207.15 214.496 221.837 228.636 221.837 228.636C221.837 228.636 236.391 190.147 212.921 172.409Z" fill="#F26666"/>
<path d="M385.259 1261.82C404.324 1199.09 363.966 1159.5 327.432 1150.41C290.898 1141.33 224.036 1141.02 258.406 1211.56C292.776 1282.1 274.485 1323.7 274.485 1323.7C274.485 1323.7 366.194 1324.56 385.259 1261.82Z" fill="#700B47"/>
<path d="M312.462 147.678C319.675 123.945 304.407 108.97 290.586 105.532C276.765 102.094 251.471 101.979 264.473 128.665C277.476 155.351 270.556 171.086 270.556 171.086C270.556 171.086 305.25 171.412 312.462 147.678Z" fill="#700B47"/>
</g>
<defs>
<clipPath id="clip0">
<rect width="360" height="1500" rx="15" fill="white"/>
</clipPath>
</defs>
</svg>
