<svg width="512" height="512" viewBox="0 0 512 512" fill="none" xmlns="http://www.w3.org/2000/svg">
<path d="M453.332 0H58.668C26.3047 0 0 26.3047 0 58.668V453.332C0 485.695 26.3047 512 58.668 512H453.332C485.695 512 512 485.695 512 453.332V58.668C512 26.3047 485.695 0 453.332 0V0ZM234.668 410.668C234.668 431.254 217.922 448 197.332 448H101.332C80.7461 448 64 431.254 64 410.668V272C64 251.414 80.7461 234.668 101.332 234.668H197.332C217.922 234.668 234.668 251.414 234.668 272V410.668ZM234.668 154.668C234.668 175.254 217.922 192 197.332 192H101.332C80.7461 192 64 175.254 64 154.668V101.332C64 80.7461 80.7461 64 101.332 64H197.332C217.922 64 234.668 80.7461 234.668 101.332V154.668ZM448 410.668C448 431.254 431.254 448 410.668 448H314.668C294.078 448 277.332 431.254 277.332 410.668V357.332C277.332 336.746 294.078 320 314.668 320H410.668C431.254 320 448 336.746 448 357.332V410.668ZM448 240C448 260.586 431.254 277.332 410.668 277.332H314.668C294.078 277.332 277.332 260.586 277.332 240V101.332C277.332 80.7461 294.078 64 314.668 64H410.668C431.254 64 448 80.7461 448 101.332V240Z" fill="#F44336"/>
</svg>
