<svg width="467" height="477" viewBox="0 0 467 477" fill="none" xmlns="http://www.w3.org/2000/svg">
<path fill-rule="evenodd" clip-rule="evenodd" d="M269.7 134.457C271.599 133.671 273.773 134.565 274.555 136.454C275.337 138.344 274.432 140.512 272.533 141.299C270.635 142.085 268.461 141.191 267.679 139.302C266.897 137.413 267.802 135.244 269.7 134.457ZM279.616 158.402C281.515 157.616 283.688 158.51 284.471 160.399C285.253 162.288 284.348 164.457 282.449 165.244C280.55 166.03 278.377 165.136 277.595 163.247C276.812 161.357 277.717 159.189 279.616 158.402ZM289.532 182.347C291.431 181.56 293.604 182.454 294.386 184.344C295.169 186.233 294.264 188.402 292.365 189.188C290.466 189.974 288.293 189.08 287.51 187.191C286.728 185.302 287.633 183.133 289.532 182.347ZM299.448 206.291C301.346 205.505 303.52 206.399 304.302 208.288C305.084 210.178 304.179 212.346 302.281 213.133C300.382 213.919 298.208 213.025 297.426 211.136C296.644 209.247 297.549 207.078 299.448 206.291ZM309.363 230.236C311.262 229.45 313.435 230.344 314.218 232.233C315 234.122 314.095 236.291 312.196 237.077C310.297 237.864 308.124 236.97 307.342 235.08C306.559 233.191 307.464 231.022 309.363 230.236ZM319.279 254.18C321.178 253.394 323.351 254.288 324.133 256.177C324.916 258.067 324.011 260.235 322.112 261.022C320.213 261.808 318.04 260.914 317.257 259.025C316.475 257.136 317.38 254.967 319.279 254.18ZM292.294 125.101C294.192 124.315 296.366 125.209 297.148 127.098C297.93 128.988 297.025 131.156 295.127 131.943C293.228 132.729 291.054 131.835 290.272 129.946C289.49 128.057 290.395 125.888 292.294 125.101ZM302.209 149.046C304.108 148.26 306.282 149.154 307.064 151.043C307.846 152.932 306.941 155.101 305.042 155.888C303.143 156.674 300.97 155.78 300.188 153.891C299.405 152.001 300.31 149.833 302.209 149.046ZM312.125 172.991C314.024 172.204 316.197 173.098 316.979 174.988C317.762 176.877 316.857 179.046 314.958 179.832C313.059 180.618 310.886 179.724 310.103 177.835C309.321 175.946 310.226 173.777 312.125 172.991ZM322.041 196.935C323.939 196.149 326.113 197.043 326.895 198.932C327.678 200.822 326.772 202.99 324.874 203.777C322.975 204.563 320.801 203.669 320.019 201.78C319.237 199.891 320.142 197.722 322.041 196.935ZM331.956 220.88C333.855 220.094 336.029 220.988 336.811 222.877C337.593 224.766 336.688 226.935 334.789 227.721C332.89 228.508 330.717 227.614 329.935 225.724C329.152 223.835 330.057 221.666 331.956 220.88ZM341.872 244.824C343.771 244.038 345.944 244.932 346.726 246.821C347.509 248.711 346.604 250.879 344.705 251.666C342.806 252.452 340.633 251.558 339.85 249.669C339.068 247.78 339.973 245.611 341.872 244.824ZM314.887 115.745C316.785 114.959 318.959 115.853 319.741 117.742C320.524 119.632 319.618 121.8 317.72 122.587C315.821 123.373 313.647 122.479 312.865 120.59C312.083 118.701 312.988 116.532 314.887 115.745ZM324.802 139.69C326.701 138.904 328.875 139.798 329.657 141.687C330.439 143.576 329.534 145.745 327.635 146.532C325.737 147.318 323.563 146.424 322.781 144.535C321.998 142.645 322.904 140.477 324.802 139.69ZM334.718 163.635C336.617 162.848 338.79 163.742 339.573 165.632C340.355 167.521 339.45 169.69 337.551 170.476C335.652 171.262 333.479 170.368 332.696 168.479C331.914 166.59 332.819 164.421 334.718 163.635ZM344.634 187.579C346.532 186.793 348.706 187.687 349.488 189.576C350.271 191.466 349.366 193.634 347.467 194.421C345.568 195.207 343.394 194.313 342.612 192.424C341.83 190.535 342.735 188.366 344.634 187.579ZM354.549 211.524C356.448 210.738 358.622 211.632 359.404 213.521C360.186 215.41 359.281 217.579 357.382 218.365C355.484 219.152 353.31 218.258 352.528 216.368C351.745 214.479 352.651 212.31 354.549 211.524ZM364.465 235.468C366.364 234.682 368.537 235.576 369.32 237.465C370.102 239.355 369.197 241.523 367.298 242.31C365.399 243.096 363.226 242.202 362.443 240.313C361.661 238.424 362.566 236.255 364.465 235.468ZM338.462 105.983C340.361 105.196 342.534 106.09 343.317 107.98C344.099 109.869 343.194 112.038 341.295 112.824C339.396 113.61 337.223 112.716 336.44 110.827C335.658 108.938 336.563 106.769 338.462 105.983ZM348.378 129.927C350.277 129.141 352.45 130.035 353.232 131.924C354.015 133.814 353.11 135.982 351.211 136.769C349.312 137.555 347.138 136.661 346.356 134.772C345.574 132.883 346.479 130.714 348.378 129.927ZM358.293 153.872C360.192 153.086 362.366 153.98 363.148 155.869C363.93 157.758 363.025 159.927 361.126 160.713C359.228 161.5 357.054 160.606 356.272 158.716C355.489 156.827 356.395 154.658 358.293 153.872ZM368.209 177.817C370.108 177.03 372.281 177.924 373.064 179.814C373.846 181.703 372.941 183.872 371.042 184.658C369.143 185.444 366.97 184.55 366.188 182.661C365.405 180.772 366.31 178.603 368.209 177.817ZM378.125 201.761C380.024 200.975 382.197 201.869 382.979 203.758C383.762 205.647 382.857 207.816 380.958 208.603C379.059 209.389 376.885 208.495 376.103 206.606C375.321 204.716 376.226 202.548 378.125 201.761ZM388.04 225.706C389.939 224.919 392.113 225.813 392.895 227.703C393.677 229.592 392.772 231.761 390.873 232.547C388.975 233.333 386.801 232.439 386.019 230.55C385.236 228.661 386.142 226.492 388.04 225.706ZM370.971 120.571C372.87 119.785 375.043 120.679 375.825 122.568C376.608 124.458 375.703 126.626 373.804 127.413C371.905 128.199 369.732 127.305 368.949 125.416C368.167 123.527 369.072 121.358 370.971 120.571ZM380.886 144.516C382.785 143.73 384.959 144.624 385.741 146.513C386.523 148.402 385.618 150.571 383.719 151.357C381.821 152.144 379.647 151.25 378.865 149.36C378.083 147.471 378.988 145.302 380.886 144.516ZM390.802 168.461C392.701 167.674 394.874 168.568 395.657 170.458C396.439 172.347 395.534 174.516 393.635 175.302C391.736 176.088 389.563 175.194 388.781 173.305C387.998 171.416 388.903 169.247 390.802 168.461ZM400.718 192.405C402.617 191.619 404.79 192.513 405.572 194.402C406.355 196.291 405.45 198.46 403.551 199.246C401.652 200.033 399.479 199.139 398.696 197.25C397.914 195.36 398.819 193.192 400.718 192.405ZM410.633 216.35C412.532 215.563 414.706 216.457 415.488 218.347C416.27 220.236 415.365 222.405 413.467 223.191C411.568 223.977 409.394 223.083 408.612 221.194C407.83 219.305 408.735 217.136 410.633 216.35ZM329.391 278.6C331.29 277.814 333.463 278.708 334.246 280.597C335.028 282.486 334.123 284.655 332.224 285.441C330.325 286.227 328.152 285.333 327.369 283.444C326.587 281.555 327.492 279.386 329.391 278.6ZM339.307 302.545C341.206 301.758 343.379 302.652 344.161 304.541C344.944 306.431 344.039 308.6 342.14 309.386C340.241 310.172 338.068 309.278 337.285 307.389C336.503 305.5 337.408 303.331 339.307 302.545ZM349.222 326.489C351.121 325.703 353.295 326.597 354.077 328.486C354.859 330.375 353.954 332.544 352.055 333.33C350.157 334.117 347.983 333.223 347.201 331.333C346.419 329.444 347.324 327.275 349.222 326.489ZM359.138 350.434C361.037 349.647 363.21 350.542 363.993 352.431C364.775 354.32 363.87 356.489 361.971 357.275C360.072 358.061 357.899 357.167 357.117 355.278C356.334 353.389 357.239 351.22 359.138 350.434ZM369.054 374.378C370.953 373.592 373.126 374.486 373.908 376.375C374.691 378.264 373.786 380.433 371.887 381.22C369.988 382.006 367.815 381.112 367.032 379.223C366.25 377.334 367.155 375.165 369.054 374.378ZM351.984 269.244C353.883 268.458 356.056 269.352 356.839 271.241C357.621 273.13 356.716 275.299 354.817 276.085C352.918 276.871 350.745 275.977 349.963 274.088C349.18 272.199 350.085 270.03 351.984 269.244ZM361.9 293.189C363.799 292.402 365.972 293.296 366.754 295.185C367.537 297.075 366.632 299.244 364.733 300.03C362.834 300.816 360.661 299.922 359.878 298.033C359.096 296.144 360.001 293.975 361.9 293.189ZM371.815 317.133C373.714 316.347 375.888 317.241 376.67 319.13C377.452 321.019 376.547 323.188 374.649 323.974C372.75 324.761 370.576 323.867 369.794 321.977C369.012 320.088 369.917 317.919 371.815 317.133ZM381.731 341.078C383.63 340.291 385.803 341.186 386.586 343.075C387.368 344.964 386.463 347.133 384.564 347.919C382.665 348.705 380.492 347.811 379.71 345.922C378.927 344.033 379.832 341.864 381.731 341.078ZM374.577 259.888C376.476 259.102 378.649 259.996 379.432 261.885C380.214 263.774 379.309 265.943 377.41 266.729C375.511 267.515 373.338 266.621 372.556 264.732C371.773 262.843 372.678 260.674 374.577 259.888ZM384.493 283.833C386.392 283.046 388.565 283.94 389.348 285.829C390.13 287.719 389.225 289.888 387.326 290.674C385.427 291.46 383.254 290.566 382.471 288.677C381.689 286.788 382.594 284.619 384.493 283.833ZM394.409 307.777C396.307 306.991 398.481 307.885 399.263 309.774C400.046 311.663 399.14 313.832 397.242 314.618C395.343 315.405 393.169 314.511 392.387 312.621C391.605 310.732 392.51 308.563 394.409 307.777ZM398.153 250.125C400.051 249.339 402.225 250.233 403.007 252.122C403.79 254.011 402.884 256.18 400.986 256.966C399.087 257.753 396.913 256.859 396.131 254.969C395.349 253.08 396.254 250.911 398.153 250.125ZM408.068 274.07C409.967 273.283 412.141 274.177 412.923 276.067C413.705 277.956 412.8 280.125 410.901 280.911C409.003 281.697 406.829 280.803 406.047 278.914C405.264 277.025 406.17 274.856 408.068 274.07Z" fill="#FAFAFA" fill-opacity="0.5"/>
<path fill-rule="evenodd" clip-rule="evenodd" d="M133.885 190.7C135.784 189.914 137.957 190.808 138.74 192.697C139.522 194.586 138.617 196.755 136.718 197.541C134.819 198.327 132.646 197.433 131.864 195.544C131.081 193.655 131.986 191.486 133.885 190.7ZM143.801 214.645C145.7 213.858 147.873 214.752 148.655 216.641C149.438 218.531 148.533 220.7 146.634 221.486C144.735 222.272 142.562 221.378 141.779 219.489C140.997 217.6 141.902 215.431 143.801 214.645ZM153.716 238.589C155.615 237.803 157.789 238.697 158.571 240.586C159.353 242.475 158.448 244.644 156.55 245.43C154.651 246.217 152.477 245.323 151.695 243.433C150.913 241.544 151.818 239.375 153.716 238.589ZM163.632 262.534C165.531 261.747 167.704 262.642 168.487 264.531C169.269 266.42 168.364 268.589 166.465 269.375C164.566 270.161 162.393 269.267 161.611 267.378C160.828 265.489 161.733 263.32 163.632 262.534ZM173.548 286.478C175.447 285.692 177.62 286.586 178.402 288.475C179.185 290.364 178.28 292.533 176.381 293.32C174.482 294.106 172.309 293.212 171.526 291.323C170.744 289.434 171.649 287.265 173.548 286.478ZM183.463 310.423C185.362 309.637 187.536 310.531 188.318 312.42C189.1 314.309 188.195 316.478 186.297 317.264C184.398 318.05 182.224 317.156 181.442 315.267C180.66 313.378 181.565 311.209 183.463 310.423ZM156.478 181.344C158.377 180.558 160.55 181.452 161.333 183.341C162.115 185.23 161.21 187.399 159.311 188.185C157.412 188.971 155.239 188.077 154.457 186.188C153.674 184.299 154.579 182.13 156.478 181.344ZM166.394 205.289C168.293 204.502 170.466 205.396 171.249 207.285C172.031 209.175 171.126 211.344 169.227 212.13C167.328 212.916 165.155 212.022 164.372 210.133C163.59 208.244 164.495 206.075 166.394 205.289ZM176.31 229.233C178.208 228.447 180.382 229.341 181.164 231.23C181.946 233.119 181.041 235.288 179.143 236.074C177.244 236.861 175.07 235.967 174.288 234.077C173.506 232.188 174.411 230.019 176.31 229.233ZM186.225 253.178C188.124 252.391 190.298 253.286 191.08 255.175C191.862 257.064 190.957 259.233 189.058 260.019C187.16 260.805 184.986 259.911 184.204 258.022C183.421 256.133 184.326 253.964 186.225 253.178ZM196.141 277.122C198.04 276.336 200.213 277.23 200.996 279.119C201.778 281.008 200.873 283.177 198.974 283.964C197.075 284.75 194.902 283.856 194.119 281.967C193.337 280.078 194.242 277.909 196.141 277.122ZM206.057 301.067C207.955 300.281 210.129 301.175 210.911 303.064C211.693 304.953 210.788 307.122 208.89 307.908C206.991 308.694 204.817 307.8 204.035 305.911C203.253 304.022 204.158 301.853 206.057 301.067ZM179.071 171.988C180.97 171.202 183.144 172.096 183.926 173.985C184.708 175.874 183.803 178.043 181.904 178.829C180.006 179.615 177.832 178.721 177.05 176.832C176.267 174.943 177.172 172.774 179.071 171.988ZM188.987 195.933C190.886 195.146 193.059 196.04 193.842 197.929C194.624 199.819 193.719 201.988 191.82 202.774C189.921 203.56 187.748 202.666 186.965 200.777C186.183 198.888 187.088 196.719 188.987 195.933ZM198.903 219.877C200.801 219.091 202.975 219.985 203.757 221.874C204.54 223.763 203.634 225.932 201.736 226.718C199.837 227.505 197.663 226.611 196.881 224.721C196.099 222.832 197.004 220.663 198.903 219.877ZM208.818 243.822C210.717 243.035 212.891 243.93 213.673 245.819C214.455 247.708 213.55 249.877 211.651 250.663C209.753 251.449 207.579 250.555 206.797 248.666C206.014 246.777 206.92 244.608 208.818 243.822ZM218.734 267.766C220.633 266.98 222.806 267.874 223.589 269.763C224.371 271.652 223.466 273.821 221.567 274.608C219.668 275.394 217.495 274.5 216.712 272.611C215.93 270.722 216.835 268.553 218.734 267.766ZM228.65 291.711C230.548 290.925 232.722 291.819 233.504 293.708C234.287 295.597 233.381 297.766 231.483 298.552C229.584 299.338 227.41 298.444 226.628 296.555C225.846 294.666 226.751 292.497 228.65 291.711ZM202.647 162.225C204.545 161.439 206.719 162.333 207.501 164.222C208.284 166.111 207.379 168.28 205.48 169.066C203.581 169.853 201.407 168.959 200.625 167.069C199.843 165.18 200.748 163.011 202.647 162.225ZM212.562 186.17C214.461 185.383 216.635 186.277 217.417 188.167C218.199 190.056 217.294 192.225 215.395 193.011C213.497 193.797 211.323 192.903 210.541 191.014C209.759 189.125 210.664 186.956 212.562 186.17ZM222.478 210.114C224.377 209.328 226.55 210.222 227.333 212.111C228.115 214 227.21 216.169 225.311 216.956C223.412 217.742 221.239 216.848 220.457 214.959C219.674 213.069 220.579 210.901 222.478 210.114ZM232.394 234.059C234.293 233.273 236.466 234.167 237.248 236.056C238.031 237.945 237.126 240.114 235.227 240.9C233.328 241.687 231.155 240.793 230.372 238.903C229.59 237.014 230.495 234.845 232.394 234.059ZM242.309 258.004C244.208 257.217 246.382 258.111 247.164 260C247.946 261.89 247.041 264.059 245.142 264.845C243.244 265.631 241.07 264.737 240.288 262.848C239.506 260.959 240.411 258.79 242.309 258.004ZM252.225 281.948C254.124 281.162 256.297 282.056 257.08 283.945C257.862 285.834 256.957 288.003 255.058 288.789C253.159 289.576 250.986 288.682 250.204 286.792C249.421 284.903 250.326 282.734 252.225 281.948ZM225.24 152.869C227.139 152.083 229.312 152.977 230.094 154.866C230.877 156.755 229.972 158.924 228.073 159.71C226.174 160.497 224.001 159.603 223.218 157.713C222.436 155.824 223.341 153.655 225.24 152.869ZM235.156 176.814C237.054 176.027 239.228 176.921 240.01 178.811C240.792 180.7 239.887 182.869 237.989 183.655C236.09 184.441 233.916 183.547 233.134 181.658C232.352 179.769 233.257 177.6 235.156 176.814ZM245.071 200.758C246.97 199.972 249.143 200.866 249.926 202.755C250.708 204.644 249.803 206.813 247.904 207.6C246.005 208.386 243.832 207.492 243.05 205.603C242.267 203.713 243.172 201.545 245.071 200.758ZM254.987 224.703C256.886 223.917 259.059 224.811 259.841 226.7C260.624 228.589 259.719 230.758 257.82 231.544C255.921 232.331 253.748 231.437 252.965 229.547C252.183 227.658 253.088 225.489 254.987 224.703ZM264.903 248.648C266.801 247.861 268.975 248.755 269.757 250.644C270.539 252.534 269.634 254.703 267.736 255.489C265.837 256.275 263.663 255.381 262.881 253.492C262.099 251.603 263.004 249.434 264.903 248.648ZM274.818 272.592C276.717 271.806 278.89 272.7 279.673 274.589C280.455 276.478 279.55 278.647 277.651 279.433C275.752 280.22 273.579 279.326 272.797 277.436C272.014 275.547 272.919 273.378 274.818 272.592ZM247.833 143.513C249.732 142.727 251.905 143.621 252.687 145.51C253.47 147.399 252.565 149.568 250.666 150.354C248.767 151.141 246.594 150.247 245.811 148.357C245.029 146.468 245.934 144.299 247.833 143.513ZM257.749 167.458C259.647 166.671 261.821 167.565 262.603 169.455C263.386 171.344 262.48 173.513 260.582 174.299C258.683 175.085 256.509 174.191 255.727 172.302C254.945 170.413 255.85 168.244 257.749 167.458ZM267.664 191.402C269.563 190.616 271.737 191.51 272.519 193.399C273.301 195.288 272.396 197.457 270.497 198.244C268.598 199.03 266.425 198.136 265.643 196.247C264.86 194.357 265.765 192.189 267.664 191.402ZM277.58 215.347C279.479 214.561 281.652 215.455 282.435 217.344C283.217 219.233 282.312 221.402 280.413 222.188C278.514 222.975 276.341 222.081 275.558 220.191C274.776 218.302 275.681 216.133 277.58 215.347ZM287.496 239.292C289.394 238.505 291.568 239.399 292.35 241.288C293.133 243.178 292.227 245.347 290.329 246.133C288.43 246.919 286.256 246.025 285.474 244.136C284.692 242.247 285.597 240.078 287.496 239.292ZM297.411 263.236C299.31 262.449 301.483 263.343 302.266 265.233C303.048 267.122 302.143 269.291 300.244 270.077C298.345 270.863 296.172 269.969 295.39 268.08C294.607 266.191 295.512 264.022 297.411 263.236ZM238.762 316.13C240.661 315.344 242.834 316.238 243.617 318.127C244.399 320.016 243.494 322.185 241.595 322.972C239.696 323.758 237.523 322.864 236.74 320.975C235.958 319.085 236.863 316.917 238.762 316.13ZM262.337 306.367C264.236 305.581 266.41 306.475 267.192 308.364C267.974 310.254 267.069 312.422 265.17 313.209C263.272 313.995 261.098 313.101 260.316 311.212C259.533 309.323 260.439 307.154 262.337 306.367ZM284.93 297.011C286.829 296.225 289.003 297.119 289.785 299.008C290.567 300.898 289.662 303.066 287.763 303.853C285.865 304.639 283.691 303.745 282.909 301.856C282.127 299.967 283.032 297.798 284.93 297.011ZM294.846 320.956C296.745 320.17 298.918 321.064 299.701 322.953C300.483 324.842 299.578 327.011 297.679 327.797C295.78 328.584 293.607 327.69 292.825 325.801C292.042 323.911 292.947 321.742 294.846 320.956ZM307.524 287.655C309.422 286.869 311.596 287.763 312.378 289.652C313.16 291.542 312.255 293.71 310.357 294.497C308.458 295.283 306.284 294.389 305.502 292.5C304.72 290.611 305.625 288.442 307.524 287.655ZM317.439 311.6C319.338 310.814 321.512 311.708 322.294 313.597C323.076 315.486 322.171 317.655 320.272 318.441C318.374 319.228 316.2 318.334 315.418 316.445C314.635 314.555 315.54 312.386 317.439 311.6ZM327.355 335.545C329.254 334.758 331.427 335.652 332.21 337.542C332.992 339.431 332.087 341.6 330.188 342.386C328.289 343.172 326.116 342.278 325.333 340.389C324.551 338.5 325.456 336.331 327.355 335.545ZM337.271 359.489C339.169 358.703 341.343 359.597 342.125 361.486C342.908 363.376 342.002 365.544 340.104 366.331C338.205 367.117 336.031 366.223 335.249 364.334C334.467 362.445 335.372 360.276 337.271 359.489Z" fill="#FAFAFA" fill-opacity="0.5"/>
<path fill-rule="evenodd" clip-rule="evenodd" d="M304.702 343.572C306.601 342.785 308.775 343.679 309.557 345.569C310.339 347.458 309.434 349.627 307.535 350.413C305.637 351.199 303.463 350.305 302.681 348.416C301.899 346.527 302.804 344.358 304.702 343.572Z" fill="#FAFAFA" fill-opacity="0.5"/>
<path fill-rule="evenodd" clip-rule="evenodd" d="M271.116 330.422C273.014 329.635 275.188 330.529 275.97 332.418C276.753 334.308 275.847 336.477 273.949 337.263C272.05 338.049 269.876 337.155 269.094 335.266C268.312 333.377 269.217 331.208 271.116 330.422Z" fill="#FAFAFA" fill-opacity="0.5"/>
<path fill-rule="evenodd" clip-rule="evenodd" d="M43.256 228.23C45.1548 227.444 47.3283 228.338 48.1106 230.227C48.8929 232.116 47.9878 234.285 46.089 235.071C44.1902 235.858 42.0167 234.964 41.2344 233.075C40.4521 231.185 41.3572 229.016 43.256 228.23ZM53.1717 252.175C55.0705 251.389 57.244 252.283 58.0263 254.172C58.8086 256.061 57.9035 258.23 56.0047 259.016C54.1059 259.802 51.9325 258.908 51.1501 257.019C50.3678 255.13 51.2729 252.961 53.1717 252.175ZM63.0873 276.119C64.9861 275.333 67.1596 276.227 67.9419 278.116C68.7243 280.005 67.8192 282.174 65.9204 282.961C64.0216 283.747 61.8481 282.853 61.0658 280.964C60.2835 279.075 61.1885 276.906 63.0873 276.119ZM66.8314 218.467C68.7302 217.681 70.9037 218.575 71.686 220.464C72.4683 222.353 71.5632 224.522 69.6644 225.309C67.7656 226.095 65.5922 225.201 64.8098 223.312C64.0275 221.423 64.9326 219.254 66.8314 218.467ZM76.7471 242.412C78.6459 241.626 80.8194 242.52 81.6017 244.409C82.384 246.298 81.479 248.467 79.5802 249.253C77.6814 250.04 75.5079 249.146 74.7256 247.256C73.9432 245.367 74.8483 243.198 76.7471 242.412ZM86.6627 266.357C88.5615 265.57 90.735 266.464 91.5174 268.354C92.2997 270.243 91.3946 272.412 89.4958 273.198C87.597 273.984 85.4235 273.09 84.6412 271.201C83.8589 269.312 84.7639 267.143 86.6627 266.357ZM96.5785 290.301C98.4773 289.515 100.651 290.409 101.433 292.298C102.215 294.187 101.31 296.356 99.4115 297.143C97.5127 297.929 95.3392 297.035 94.5569 295.146C93.7746 293.257 94.6797 291.088 96.5785 290.301ZM89.4245 209.111C91.3233 208.325 93.4968 209.219 94.2791 211.108C95.0614 212.997 94.1563 215.166 92.2575 215.953C90.3587 216.739 88.1852 215.845 87.4029 213.956C86.6206 212.067 87.5257 209.898 89.4245 209.111ZM99.3402 233.056C101.239 232.27 103.412 233.164 104.195 235.053C104.977 236.942 104.072 239.111 102.173 239.897C100.274 240.684 98.101 239.79 97.3186 237.9C96.5363 236.011 97.4414 233.842 99.3402 233.056ZM109.256 257.001C111.155 256.214 113.328 257.108 114.11 258.998C114.893 260.887 113.988 263.056 112.089 263.842C110.19 264.628 108.017 263.734 107.234 261.845C106.452 259.956 107.357 257.787 109.256 257.001ZM119.172 280.945C121.07 280.159 123.244 281.053 124.026 282.942C124.808 284.831 123.903 287 122.005 287.787C120.106 288.573 117.932 287.679 117.15 285.79C116.368 283.901 117.273 281.732 119.172 280.945ZM112.018 199.755C113.916 198.969 116.09 199.863 116.872 201.752C117.654 203.641 116.749 205.81 114.851 206.597C112.952 207.383 110.778 206.489 109.996 204.6C109.214 202.711 110.119 200.542 112.018 199.755ZM121.933 223.7C123.832 222.914 126.006 223.808 126.788 225.697C127.57 227.586 126.665 229.755 124.766 230.541C122.868 231.328 120.694 230.434 119.912 228.544C119.129 226.655 120.034 224.486 121.933 223.7ZM131.849 247.645C133.748 246.858 135.921 247.752 136.704 249.642C137.486 251.531 136.581 253.7 134.682 254.486C132.783 255.272 130.61 254.378 129.827 252.489C129.045 250.6 129.95 248.431 131.849 247.645ZM141.765 271.589C143.663 270.803 145.837 271.697 146.619 273.586C147.402 275.475 146.496 277.644 144.598 278.431C142.699 279.217 140.525 278.323 139.743 276.434C138.961 274.545 139.866 272.376 141.765 271.589ZM151.68 295.534C153.579 294.748 155.753 295.642 156.535 297.531C157.317 299.42 156.412 301.589 154.513 302.375C152.615 303.161 150.441 302.267 149.659 300.378C148.876 298.489 149.781 296.32 151.68 295.534Z" fill="#FAFAFA" fill-opacity="0.5"/>
<path fill-rule="evenodd" clip-rule="evenodd" d="M240.532 64.0207C242.431 63.2344 244.604 64.1285 245.386 66.0176C246.169 67.9068 245.264 70.0757 243.365 70.862C241.466 71.6483 239.293 70.7543 238.51 68.8651C237.728 66.9759 238.633 64.807 240.532 64.0207ZM250.448 87.9652C252.346 87.1789 254.52 88.073 255.302 89.9622C256.084 91.8513 255.179 94.0202 253.281 94.8065C251.382 95.5929 249.208 94.6988 248.426 92.8096C247.644 90.9205 248.549 88.7515 250.448 87.9652ZM260.363 111.91C262.262 111.123 264.435 112.017 265.218 113.907C266 115.796 265.095 117.965 263.196 118.751C261.297 119.537 259.124 118.643 258.342 116.754C257.559 114.865 258.464 112.696 260.363 111.91ZM263.125 54.6647C265.024 53.8784 267.197 54.7725 267.98 56.6616C268.762 58.5508 267.857 60.7197 265.958 61.506C264.059 62.2923 261.886 61.3983 261.103 59.5091C260.321 57.6199 261.226 55.451 263.125 54.6647ZM273.041 78.6092C274.939 77.8229 277.113 78.717 277.895 80.6062C278.678 82.4953 277.772 84.6642 275.874 85.4505C273.975 86.2369 271.801 85.3428 271.019 83.4536C270.237 81.5645 271.142 79.3955 273.041 78.6092ZM282.956 102.554C284.855 101.767 287.029 102.661 287.811 104.551C288.593 106.44 287.688 108.609 285.789 109.395C283.891 110.181 281.717 109.287 280.935 107.398C280.152 105.509 281.057 103.34 282.956 102.554ZM295.634 69.2532C297.532 68.4669 299.706 69.361 300.488 71.2502C301.271 73.1393 300.366 75.3082 298.467 76.0945C296.568 76.8809 294.394 75.9868 293.612 74.0976C292.83 72.2085 293.735 70.0395 295.634 69.2532ZM305.549 93.1978C307.448 92.4114 309.622 93.3055 310.404 95.1947C311.186 97.0838 310.281 99.2528 308.382 100.039C306.484 100.825 304.31 99.9313 303.528 98.0422C302.745 96.153 303.651 93.9841 305.549 93.1978ZM329.125 83.435C331.024 82.6487 333.197 83.5427 333.979 85.4319C334.762 87.3211 333.857 89.49 331.958 90.2763C330.059 91.0626 327.886 90.1685 327.103 88.2794C326.321 86.3902 327.226 84.2213 329.125 83.435Z" fill="#FAFAFA" fill-opacity="0.5"/>
<path fill-rule="evenodd" clip-rule="evenodd" d="M104.717 120.263C106.615 119.477 108.789 120.371 109.571 122.26C110.353 124.149 109.448 126.318 107.55 127.104C105.651 127.891 103.477 126.997 102.695 125.107C101.913 123.218 102.818 121.049 104.717 120.263ZM114.632 144.208C116.531 143.421 118.704 144.315 119.487 146.204C120.269 148.094 119.364 150.263 117.465 151.049C115.566 151.835 113.393 150.941 112.611 149.052C111.828 147.163 112.733 144.994 114.632 144.208ZM124.548 168.152C126.447 167.366 128.62 168.26 129.402 170.149C130.185 172.038 129.28 174.207 127.381 174.993C125.482 175.78 123.309 174.886 122.526 172.996C121.744 171.107 122.649 168.938 124.548 168.152ZM117.394 86.9623C119.293 86.176 121.466 87.07 122.249 88.9592C123.031 90.8484 122.126 93.0173 120.227 93.8036C118.328 94.5899 116.155 93.6958 115.372 91.8067C114.59 89.9175 115.495 87.7486 117.394 86.9623ZM127.31 110.907C129.208 110.121 131.382 111.015 132.164 112.904C132.947 114.793 132.041 116.962 130.143 117.748C128.244 118.535 126.07 117.641 125.288 115.751C124.506 113.862 125.411 111.693 127.31 110.907ZM137.225 134.852C139.124 134.065 141.298 134.959 142.08 136.848C142.862 138.738 141.957 140.907 140.058 141.693C138.16 142.479 135.986 141.585 135.204 139.696C134.421 137.807 135.326 135.638 137.225 134.852ZM147.141 158.796C149.04 158.01 151.213 158.904 151.996 160.793C152.778 162.682 151.873 164.851 149.974 165.637C148.075 166.424 145.902 165.53 145.119 163.64C144.337 161.751 145.242 159.582 147.141 158.796ZM139.987 77.6063C141.886 76.82 144.059 77.714 144.842 79.6032C145.624 81.4924 144.719 83.6613 142.82 84.4476C140.921 85.2339 138.748 84.3398 137.965 82.4507C137.183 80.5615 138.088 78.3926 139.987 77.6063ZM149.903 101.551C151.802 100.765 153.975 101.659 154.757 103.548C155.54 105.437 154.635 107.606 152.736 108.392C150.837 109.179 148.663 108.285 147.881 106.395C147.099 104.506 148.004 102.337 149.903 101.551ZM159.818 125.496C161.717 124.709 163.891 125.603 164.673 127.492C165.455 129.382 164.55 131.551 162.651 132.337C160.753 133.123 158.579 132.229 157.797 130.34C157.014 128.451 157.92 126.282 159.818 125.496ZM169.734 149.44C171.633 148.654 173.806 149.548 174.589 151.437C175.371 153.326 174.466 155.495 172.567 156.281C170.668 157.068 168.495 156.174 167.712 154.284C166.93 152.395 167.835 150.226 169.734 149.44ZM163.562 67.8435C165.461 67.0572 167.635 67.9512 168.417 69.8404C169.199 71.7296 168.294 73.8985 166.395 74.6848C164.497 75.4711 162.323 74.5771 161.541 72.6879C160.759 70.7987 161.664 68.6298 163.562 67.8435ZM173.478 91.7882C175.377 91.0019 177.55 91.8959 178.333 93.7851C179.115 95.6743 178.21 97.8432 176.311 98.6295C174.412 99.4158 172.239 98.5218 171.457 96.6326C170.674 94.7434 171.579 92.5745 173.478 91.7882ZM183.394 115.733C185.293 114.946 187.466 115.84 188.248 117.73C189.031 119.619 188.126 121.788 186.227 122.574C184.328 123.36 182.155 122.466 181.372 120.577C180.59 118.688 181.495 116.519 183.394 115.733ZM193.309 139.677C195.208 138.891 197.382 139.785 198.164 141.674C198.946 143.563 198.041 145.732 196.142 146.519C194.244 147.305 192.07 146.411 191.288 144.522C190.506 142.632 191.411 140.464 193.309 139.677ZM186.156 58.4875C188.054 57.7012 190.228 58.5952 191.01 60.4844C191.792 62.3736 190.887 64.5425 188.989 65.3288C187.09 66.1151 184.916 65.2211 184.134 63.3319C183.352 61.4427 184.257 59.2738 186.156 58.4875ZM196.071 82.4322C197.97 81.6459 200.144 82.5399 200.926 84.4291C201.708 86.3183 200.803 88.4872 198.904 89.2735C197.005 90.0598 194.832 89.1658 194.05 87.2766C193.267 85.3874 194.172 83.2185 196.071 82.4322ZM205.987 106.377C207.886 105.59 210.059 106.484 210.841 108.374C211.624 110.263 210.719 112.432 208.82 113.218C206.921 114.004 204.748 113.11 203.965 111.221C203.183 109.332 204.088 107.163 205.987 106.377ZM215.903 130.321C217.801 129.535 219.975 130.429 220.757 132.318C221.539 134.207 220.634 136.376 218.736 137.163C216.837 137.949 214.663 137.055 213.881 135.166C213.099 133.276 214.004 131.108 215.903 130.321ZM208.749 49.1315C210.647 48.3452 212.821 49.2392 213.603 51.1284C214.386 53.0176 213.48 55.1865 211.582 55.9728C209.683 56.7591 207.509 55.8651 206.727 53.9759C205.945 52.0867 206.85 49.9178 208.749 49.1315ZM218.664 73.0762C220.563 72.2899 222.737 73.1839 223.519 75.0731C224.301 76.9623 223.396 79.1312 221.497 79.9175C219.599 80.7038 217.425 79.8098 216.643 77.9206C215.86 76.0314 216.766 73.8625 218.664 73.0762ZM228.58 97.0207C230.479 96.2344 232.652 97.1285 233.435 99.0176C234.217 100.907 233.312 103.076 231.413 103.862C229.514 104.648 227.341 103.754 226.558 101.865C225.776 99.9759 226.681 97.807 228.58 97.0207ZM238.496 120.965C240.394 120.179 242.568 121.073 243.35 122.962C244.133 124.851 243.227 127.02 241.329 127.807C239.43 128.593 237.256 127.699 236.474 125.81C235.692 123.92 236.597 121.752 238.496 120.965Z" fill="#FAFAFA" fill-opacity="0.5"/>
<path fill-rule="evenodd" clip-rule="evenodd" d="M33.9187 205.682C35.8175 204.896 37.991 205.79 38.7733 207.679C39.5556 209.569 38.6505 211.737 36.7517 212.524C34.8529 213.31 32.6795 212.416 31.8971 210.527C31.1148 208.638 32.0199 206.469 33.9187 205.682ZM47.5785 171.975C49.4773 171.189 51.6507 172.083 52.4331 173.972C53.2154 175.861 52.3103 178.03 50.4115 178.816C48.5127 179.603 46.3392 178.709 45.5569 176.82C44.7746 174.93 45.6797 172.761 47.5785 171.975ZM57.4941 195.92C59.3929 195.133 61.5664 196.027 62.3487 197.917C63.131 199.806 62.226 201.975 60.3272 202.761C58.4284 203.547 56.2549 202.653 55.4726 200.764C54.6902 198.875 55.5953 196.706 57.4941 195.92ZM70.1716 162.619C72.0704 161.833 74.2438 162.727 75.0262 164.616C75.8085 166.505 74.9034 168.674 73.0046 169.46C71.1058 170.247 68.9323 169.353 68.15 167.464C67.3677 165.574 68.2728 163.405 70.1716 162.619ZM80.0872 186.564C81.986 185.777 84.1595 186.671 84.9418 188.561C85.7241 190.45 84.819 192.619 82.9202 193.405C81.0214 194.191 78.848 193.297 78.0656 191.408C77.2833 189.519 78.1884 187.35 80.0872 186.564ZM82.849 129.319C84.7478 128.532 86.9213 129.426 87.7036 131.316C88.4859 133.205 87.5809 135.374 85.6821 136.16C83.7833 136.946 81.6098 136.052 80.8275 134.163C80.0451 132.274 80.9502 130.105 82.849 129.319ZM92.7647 153.263C94.6635 152.477 96.8369 153.371 97.6193 155.26C98.4016 157.149 97.4965 159.318 95.5977 160.104C93.6989 160.891 91.5254 159.997 90.7431 158.108C89.9608 156.218 90.8659 154.049 92.7647 153.263ZM102.68 177.208C104.579 176.421 106.753 177.315 107.535 179.205C108.317 181.094 107.412 183.263 105.513 184.049C103.615 184.835 101.441 183.941 100.659 182.052C99.8764 180.163 100.781 177.994 102.68 177.208Z" fill="#FAFAFA" fill-opacity="0.5"/>
</svg>
