<svg width="352" height="371" viewBox="0 0 352 371" fill="none" xmlns="http://www.w3.org/2000/svg">
<path fill-rule="evenodd" clip-rule="evenodd" d="M103.053 268C100.998 268 99.3315 266.342 99.3315 264.298C99.3315 262.253 100.998 260.595 103.053 260.595C105.108 260.595 106.774 262.253 106.774 264.298C106.774 266.342 105.108 268 103.053 268ZM103.053 242.083C100.998 242.083 99.3315 240.426 99.3315 238.381C99.3315 236.336 100.998 234.679 103.053 234.679C105.108 234.679 106.774 236.336 106.774 238.381C106.774 240.426 105.108 242.083 103.053 242.083ZM103.053 216.167C100.998 216.167 99.3315 214.509 99.3315 212.465C99.3315 210.42 100.998 208.762 103.053 208.762C105.108 208.762 106.774 210.42 106.774 212.465C106.774 214.509 105.108 216.167 103.053 216.167ZM103.053 190.25C100.998 190.25 99.3315 188.593 99.3315 186.548C99.3315 184.503 100.998 182.846 103.053 182.846C105.108 182.846 106.774 184.503 106.774 186.548C106.774 188.593 105.108 190.25 103.053 190.25ZM103.053 164.334C100.998 164.334 99.3315 162.676 99.3315 160.632C99.3315 158.587 100.998 156.929 103.053 156.929C105.108 156.929 106.774 158.587 106.774 160.632C106.774 162.676 105.108 164.334 103.053 164.334ZM103.053 138.418C100.998 138.418 99.3315 136.76 99.3315 134.715C99.3315 132.67 100.998 131.013 103.053 131.013C105.108 131.013 106.774 132.67 106.774 134.715C106.774 136.76 105.108 138.418 103.053 138.418ZM78.5991 268C76.5439 268 74.8779 266.342 74.8779 264.298C74.8779 262.253 76.5439 260.595 78.5991 260.595C80.6542 260.595 82.3203 262.253 82.3203 264.298C82.3203 266.342 80.6542 268 78.5991 268ZM78.5991 242.083C76.5439 242.083 74.8779 240.426 74.8779 238.381C74.8779 236.336 76.5439 234.679 78.5991 234.679C80.6542 234.679 82.3203 236.336 82.3203 238.381C82.3203 240.426 80.6542 242.083 78.5991 242.083ZM78.5991 216.167C76.5439 216.167 74.8779 214.509 74.8779 212.465C74.8779 210.42 76.5439 208.762 78.5991 208.762C80.6542 208.762 82.3203 210.42 82.3203 212.465C82.3203 214.509 80.6542 216.167 78.5991 216.167ZM78.5991 190.25C76.5439 190.25 74.8779 188.593 74.8779 186.548C74.8779 184.503 76.5439 182.846 78.5991 182.846C80.6542 182.846 82.3203 184.503 82.3203 186.548C82.3203 188.593 80.6542 190.25 78.5991 190.25ZM78.5991 164.334C76.5439 164.334 74.8779 162.676 74.8779 160.632C74.8779 158.587 76.5439 156.929 78.5991 156.929C80.6542 156.929 82.3203 158.587 82.3203 160.632C82.3203 162.676 80.6542 164.334 78.5991 164.334ZM78.5991 138.418C76.5439 138.418 74.8779 136.76 74.8779 134.715C74.8779 132.67 76.5439 131.013 78.5991 131.013C80.6542 131.013 82.3203 132.67 82.3203 134.715C82.3203 136.76 80.6542 138.418 78.5991 138.418ZM54.1454 268C52.0902 268 50.4242 266.342 50.4242 264.298C50.4242 262.253 52.0902 260.595 54.1454 260.595C56.2006 260.595 57.8666 262.253 57.8666 264.298C57.8666 266.342 56.2006 268 54.1454 268ZM54.1454 242.083C52.0902 242.083 50.4242 240.426 50.4242 238.381C50.4242 236.336 52.0902 234.679 54.1454 234.679C56.2006 234.679 57.8666 236.336 57.8666 238.381C57.8666 240.426 56.2006 242.083 54.1454 242.083ZM54.1454 216.167C52.0902 216.167 50.4242 214.509 50.4242 212.465C50.4242 210.42 52.0902 208.762 54.1454 208.762C56.2006 208.762 57.8666 210.42 57.8666 212.465C57.8666 214.509 56.2006 216.167 54.1454 216.167ZM54.1454 190.25C52.0902 190.25 50.4242 188.593 50.4242 186.548C50.4242 184.503 52.0902 182.846 54.1454 182.846C56.2006 182.846 57.8666 184.503 57.8666 186.548C57.8666 188.593 56.2006 190.25 54.1454 190.25ZM54.1454 164.334C52.0902 164.334 50.4242 162.676 50.4242 160.632C50.4242 158.587 52.0902 156.929 54.1454 156.929C56.2006 156.929 57.8666 158.587 57.8666 160.632C57.8666 162.676 56.2006 164.334 54.1454 164.334ZM54.1454 138.418C52.0902 138.418 50.4242 136.76 50.4242 134.715C50.4242 132.67 52.0902 131.013 54.1454 131.013C56.2006 131.013 57.8666 132.67 57.8666 134.715C57.8666 136.76 56.2006 138.418 54.1454 138.418ZM28.6285 268C26.5733 268 24.9073 266.342 24.9073 264.298C24.9073 262.253 26.5733 260.595 28.6285 260.595C30.6837 260.595 32.3497 262.253 32.3497 264.298C32.3497 266.342 30.6837 268 28.6285 268ZM28.6285 242.083C26.5733 242.083 24.9073 240.426 24.9073 238.381C24.9073 236.336 26.5733 234.679 28.6285 234.679C30.6837 234.679 32.3497 236.336 32.3497 238.381C32.3497 240.426 30.6837 242.083 28.6285 242.083ZM28.6285 216.167C26.5733 216.167 24.9073 214.509 24.9073 212.465C24.9073 210.42 26.5733 208.762 28.6285 208.762C30.6837 208.762 32.3497 210.42 32.3497 212.465C32.3497 214.509 30.6837 216.167 28.6285 216.167ZM28.6285 190.25C26.5733 190.25 24.9073 188.593 24.9073 186.548C24.9073 184.503 26.5733 182.846 28.6285 182.846C30.6837 182.846 32.3497 184.503 32.3497 186.548C32.3497 188.593 30.6837 190.25 28.6285 190.25ZM28.6285 164.334C26.5733 164.334 24.9073 162.676 24.9073 160.632C24.9073 158.587 26.5733 156.929 28.6285 156.929C30.6837 156.929 32.3497 158.587 32.3497 160.632C32.3497 162.676 30.6837 164.334 28.6285 164.334ZM28.6285 138.418C26.5733 138.418 24.9073 136.76 24.9073 134.715C24.9073 132.67 26.5733 131.013 28.6285 131.013C30.6837 131.013 32.3497 132.67 32.3497 134.715C32.3497 136.76 30.6837 138.418 28.6285 138.418ZM4.17483 242.083C2.11966 242.083 0.453613 240.426 0.453613 238.381C0.453613 236.336 2.11966 234.679 4.17483 234.679C6.23 234.679 7.89604 236.336 7.89604 238.381C7.89604 240.426 6.23 242.083 4.17483 242.083ZM4.17483 216.167C2.11966 216.167 0.453613 214.509 0.453613 212.465C0.453613 210.42 2.11966 208.762 4.17483 208.762C6.23 208.762 7.89604 210.42 7.89604 212.465C7.89604 214.509 6.23 216.167 4.17483 216.167ZM4.17483 190.25C2.11966 190.25 0.453613 188.593 0.453613 186.548C0.453613 184.503 2.11966 182.846 4.17483 182.846C6.23 182.846 7.89604 184.503 7.89604 186.548C7.89604 188.593 6.23 190.25 4.17483 190.25ZM4.17483 164.334C2.11966 164.334 0.453613 162.676 0.453613 160.632C0.453613 158.587 2.11966 156.929 4.17483 156.929C6.23 156.929 7.89604 158.587 7.89604 160.632C7.89604 162.676 6.23 164.334 4.17483 164.334ZM4.17483 138.418C2.11966 138.418 0.453613 136.76 0.453613 134.715C0.453613 132.67 2.11966 131.013 4.17483 131.013C6.23 131.013 7.89604 132.67 7.89604 134.715C7.89604 136.76 6.23 138.418 4.17483 138.418ZM103.053 111.987C100.998 111.987 99.3315 110.33 99.3315 108.285C99.3315 106.24 100.998 104.583 103.053 104.583C105.108 104.583 106.774 106.24 106.774 108.285C106.774 110.33 105.108 111.987 103.053 111.987ZM103.053 86.0706C100.998 86.0706 99.3315 84.413 99.3315 82.3683C99.3315 80.3235 100.998 78.6659 103.053 78.6659C105.108 78.6659 106.774 80.3235 106.774 82.3683C106.774 84.413 105.108 86.0706 103.053 86.0706ZM103.053 60.1542C100.998 60.1542 99.3315 58.4966 99.3315 56.4519C99.3315 54.4071 100.998 52.7495 103.053 52.7495C105.108 52.7495 106.774 54.4071 106.774 56.4519C106.774 58.4966 105.108 60.1542 103.053 60.1542ZM103.053 34.2376C100.998 34.2376 99.3315 32.58 99.3315 30.5353C99.3315 28.4905 100.998 26.8329 103.053 26.8329C105.108 26.8329 106.774 28.4905 106.774 30.5353C106.774 32.58 105.108 34.2376 103.053 34.2376ZM103.053 8.32121C100.998 8.32121 99.3315 6.66361 99.3315 4.61886C99.3315 2.5741 100.998 0.916504 103.053 0.916504C105.108 0.916504 106.774 2.5741 106.774 4.61886C106.774 6.66361 105.108 8.32121 103.053 8.32121ZM78.5991 111.987C76.5439 111.987 74.8779 110.33 74.8779 108.285C74.8779 106.24 76.5439 104.583 78.5991 104.583C80.6542 104.583 82.3203 106.24 82.3203 108.285C82.3203 110.33 80.6542 111.987 78.5991 111.987ZM78.5991 86.0706C76.5439 86.0706 74.8779 84.413 74.8779 82.3683C74.8779 80.3235 76.5439 78.6659 78.5991 78.6659C80.6542 78.6659 82.3203 80.3235 82.3203 82.3683C82.3203 84.413 80.6542 86.0706 78.5991 86.0706ZM78.5991 60.1542C76.5439 60.1542 74.8779 58.4966 74.8779 56.4519C74.8779 54.4071 76.5439 52.7495 78.5991 52.7495C80.6542 52.7495 82.3203 54.4071 82.3203 56.4519C82.3203 58.4966 80.6542 60.1542 78.5991 60.1542ZM78.5991 34.2376C76.5439 34.2376 74.8779 32.58 74.8779 30.5353C74.8779 28.4905 76.5439 26.8329 78.5991 26.8329C80.6542 26.8329 82.3203 28.4905 82.3203 30.5353C82.3203 32.58 80.6542 34.2376 78.5991 34.2376ZM54.1454 111.987C52.0902 111.987 50.4242 110.33 50.4242 108.285C50.4242 106.24 52.0902 104.583 54.1454 104.583C56.2006 104.583 57.8666 106.24 57.8666 108.285C57.8666 110.33 56.2006 111.987 54.1454 111.987ZM54.1454 86.0706C52.0902 86.0706 50.4242 84.413 50.4242 82.3683C50.4242 80.3235 52.0902 78.6659 54.1454 78.6659C56.2006 78.6659 57.8666 80.3235 57.8666 82.3683C57.8666 84.413 56.2006 86.0706 54.1454 86.0706ZM54.1454 60.1542C52.0902 60.1542 50.4242 58.4966 50.4242 56.4519C50.4242 54.4071 52.0902 52.7495 54.1454 52.7495C56.2006 52.7495 57.8666 54.4071 57.8666 56.4519C57.8666 58.4966 56.2006 60.1542 54.1454 60.1542ZM28.6285 111.987C26.5733 111.987 24.9073 110.33 24.9073 108.285C24.9073 106.24 26.5733 104.583 28.6285 104.583C30.6837 104.583 32.3497 106.24 32.3497 108.285C32.3497 110.33 30.6837 111.987 28.6285 111.987ZM28.6285 86.0706C26.5733 86.0706 24.9073 84.413 24.9073 82.3683C24.9073 80.3235 26.5733 78.6659 28.6285 78.6659C30.6837 78.6659 32.3497 80.3235 32.3497 82.3683C32.3497 84.413 30.6837 86.0706 28.6285 86.0706Z" fill="#FAFAFA" fill-opacity="0.5"/>
<path fill-rule="evenodd" clip-rule="evenodd" d="M250.053 268C247.998 268 246.332 266.342 246.332 264.298C246.332 262.253 247.998 260.595 250.053 260.595C252.108 260.595 253.774 262.253 253.774 264.298C253.774 266.342 252.108 268 250.053 268ZM250.053 242.083C247.998 242.083 246.332 240.426 246.332 238.381C246.332 236.336 247.998 234.679 250.053 234.679C252.108 234.679 253.774 236.336 253.774 238.381C253.774 240.426 252.108 242.083 250.053 242.083ZM250.053 216.167C247.998 216.167 246.332 214.509 246.332 212.465C246.332 210.42 247.998 208.762 250.053 208.762C252.108 208.762 253.774 210.42 253.774 212.465C253.774 214.509 252.108 216.167 250.053 216.167ZM250.053 190.25C247.998 190.25 246.332 188.593 246.332 186.548C246.332 184.503 247.998 182.846 250.053 182.846C252.108 182.846 253.774 184.503 253.774 186.548C253.774 188.593 252.108 190.25 250.053 190.25ZM250.053 164.334C247.998 164.334 246.332 162.676 246.332 160.632C246.332 158.587 247.998 156.929 250.053 156.929C252.108 156.929 253.774 158.587 253.774 160.632C253.774 162.676 252.108 164.334 250.053 164.334ZM250.053 138.418C247.998 138.418 246.332 136.76 246.332 134.715C246.332 132.67 247.998 131.013 250.053 131.013C252.108 131.013 253.774 132.67 253.774 134.715C253.774 136.76 252.108 138.418 250.053 138.418ZM225.599 268C223.544 268 221.878 266.342 221.878 264.298C221.878 262.253 223.544 260.595 225.599 260.595C227.654 260.595 229.32 262.253 229.32 264.298C229.32 266.342 227.654 268 225.599 268ZM225.599 242.083C223.544 242.083 221.878 240.426 221.878 238.381C221.878 236.336 223.544 234.679 225.599 234.679C227.654 234.679 229.32 236.336 229.32 238.381C229.32 240.426 227.654 242.083 225.599 242.083ZM225.599 216.167C223.544 216.167 221.878 214.509 221.878 212.465C221.878 210.42 223.544 208.762 225.599 208.762C227.654 208.762 229.32 210.42 229.32 212.465C229.32 214.509 227.654 216.167 225.599 216.167ZM225.599 190.25C223.544 190.25 221.878 188.593 221.878 186.548C221.878 184.503 223.544 182.846 225.599 182.846C227.654 182.846 229.32 184.503 229.32 186.548C229.32 188.593 227.654 190.25 225.599 190.25ZM225.599 164.334C223.544 164.334 221.878 162.676 221.878 160.632C221.878 158.587 223.544 156.929 225.599 156.929C227.654 156.929 229.32 158.587 229.32 160.632C229.32 162.676 227.654 164.334 225.599 164.334ZM225.599 138.418C223.544 138.418 221.878 136.76 221.878 134.715C221.878 132.67 223.544 131.013 225.599 131.013C227.654 131.013 229.32 132.67 229.32 134.715C229.32 136.76 227.654 138.418 225.599 138.418ZM201.145 268C199.09 268 197.424 266.342 197.424 264.298C197.424 262.253 199.09 260.595 201.145 260.595C203.201 260.595 204.867 262.253 204.867 264.298C204.867 266.342 203.201 268 201.145 268ZM201.145 242.083C199.09 242.083 197.424 240.426 197.424 238.381C197.424 236.336 199.09 234.679 201.145 234.679C203.201 234.679 204.867 236.336 204.867 238.381C204.867 240.426 203.201 242.083 201.145 242.083ZM201.145 216.167C199.09 216.167 197.424 214.509 197.424 212.465C197.424 210.42 199.09 208.762 201.145 208.762C203.201 208.762 204.867 210.42 204.867 212.465C204.867 214.509 203.201 216.167 201.145 216.167ZM201.145 190.25C199.09 190.25 197.424 188.593 197.424 186.548C197.424 184.503 199.09 182.846 201.145 182.846C203.201 182.846 204.867 184.503 204.867 186.548C204.867 188.593 203.201 190.25 201.145 190.25ZM201.145 164.334C199.09 164.334 197.424 162.676 197.424 160.632C197.424 158.587 199.09 156.929 201.145 156.929C203.201 156.929 204.867 158.587 204.867 160.632C204.867 162.676 203.201 164.334 201.145 164.334ZM201.145 138.418C199.09 138.418 197.424 136.76 197.424 134.715C197.424 132.67 199.09 131.013 201.145 131.013C203.201 131.013 204.867 132.67 204.867 134.715C204.867 136.76 203.201 138.418 201.145 138.418ZM175.629 268C173.573 268 171.907 266.342 171.907 264.298C171.907 262.253 173.573 260.595 175.629 260.595C177.684 260.595 179.35 262.253 179.35 264.298C179.35 266.342 177.684 268 175.629 268ZM175.629 242.083C173.573 242.083 171.907 240.426 171.907 238.381C171.907 236.336 173.573 234.679 175.629 234.679C177.684 234.679 179.35 236.336 179.35 238.381C179.35 240.426 177.684 242.083 175.629 242.083ZM175.629 216.167C173.573 216.167 171.907 214.509 171.907 212.465C171.907 210.42 173.573 208.762 175.629 208.762C177.684 208.762 179.35 210.42 179.35 212.465C179.35 214.509 177.684 216.167 175.629 216.167ZM175.629 190.25C173.573 190.25 171.907 188.593 171.907 186.548C171.907 184.503 173.573 182.846 175.629 182.846C177.684 182.846 179.35 184.503 179.35 186.548C179.35 188.593 177.684 190.25 175.629 190.25ZM175.629 164.334C173.573 164.334 171.907 162.676 171.907 160.632C171.907 158.587 173.573 156.929 175.629 156.929C177.684 156.929 179.35 158.587 179.35 160.632C179.35 162.676 177.684 164.334 175.629 164.334ZM175.629 138.418C173.573 138.418 171.907 136.76 171.907 134.715C171.907 132.67 173.573 131.013 175.629 131.013C177.684 131.013 179.35 132.67 179.35 134.715C179.35 136.76 177.684 138.418 175.629 138.418ZM151.175 268C149.12 268 147.454 266.342 147.454 264.298C147.454 262.253 149.12 260.595 151.175 260.595C153.23 260.595 154.896 262.253 154.896 264.298C154.896 266.342 153.23 268 151.175 268ZM151.175 242.083C149.12 242.083 147.454 240.426 147.454 238.381C147.454 236.336 149.12 234.679 151.175 234.679C153.23 234.679 154.896 236.336 154.896 238.381C154.896 240.426 153.23 242.083 151.175 242.083ZM151.175 216.167C149.12 216.167 147.454 214.509 147.454 212.465C147.454 210.42 149.12 208.762 151.175 208.762C153.23 208.762 154.896 210.42 154.896 212.465C154.896 214.509 153.23 216.167 151.175 216.167ZM151.175 190.25C149.12 190.25 147.454 188.593 147.454 186.548C147.454 184.503 149.12 182.846 151.175 182.846C153.23 182.846 154.896 184.503 154.896 186.548C154.896 188.593 153.23 190.25 151.175 190.25ZM151.175 164.334C149.12 164.334 147.454 162.676 147.454 160.632C147.454 158.587 149.12 156.929 151.175 156.929C153.23 156.929 154.896 158.587 154.896 160.632C154.896 162.676 153.23 164.334 151.175 164.334ZM151.175 138.418C149.12 138.418 147.454 136.76 147.454 134.715C147.454 132.67 149.12 131.013 151.175 131.013C153.23 131.013 154.896 132.67 154.896 134.715C154.896 136.76 153.23 138.418 151.175 138.418ZM126.721 268C124.666 268 123 266.342 123 264.298C123 262.253 124.666 260.595 126.721 260.595C128.776 260.595 130.442 262.253 130.442 264.298C130.442 266.342 128.776 268 126.721 268ZM126.721 242.083C124.666 242.083 123 240.426 123 238.381C123 236.336 124.666 234.679 126.721 234.679C128.776 234.679 130.442 236.336 130.442 238.381C130.442 240.426 128.776 242.083 126.721 242.083ZM126.721 216.167C124.666 216.167 123 214.509 123 212.465C123 210.42 124.666 208.762 126.721 208.762C128.776 208.762 130.442 210.42 130.442 212.465C130.442 214.509 128.776 216.167 126.721 216.167ZM126.721 190.25C124.666 190.25 123 188.593 123 186.548C123 184.503 124.666 182.846 126.721 182.846C128.776 182.846 130.442 184.503 130.442 186.548C130.442 188.593 128.776 190.25 126.721 190.25ZM126.721 164.334C124.666 164.334 123 162.676 123 160.632C123 158.587 124.666 156.929 126.721 156.929C128.776 156.929 130.442 158.587 130.442 160.632C130.442 162.676 128.776 164.334 126.721 164.334ZM126.721 138.418C124.666 138.418 123 136.76 123 134.716C123 132.671 124.666 131.013 126.721 131.013C128.776 131.013 130.442 132.671 130.442 134.716C130.442 136.76 128.776 138.418 126.721 138.418ZM201.145 111.987C199.09 111.987 197.424 110.33 197.424 108.285C197.424 106.24 199.09 104.582 201.145 104.582C203.201 104.582 204.867 106.24 204.867 108.285C204.867 110.33 203.201 111.987 201.145 111.987ZM175.629 111.987C173.573 111.987 171.907 110.33 171.907 108.285C171.907 106.24 173.573 104.582 175.629 104.582C177.684 104.582 179.35 106.24 179.35 108.285C179.35 110.33 177.684 111.987 175.629 111.987ZM151.175 111.987C149.12 111.987 147.454 110.33 147.454 108.285C147.454 106.24 149.12 104.582 151.175 104.582C153.23 104.582 154.896 106.24 154.896 108.285C154.896 110.33 153.23 111.987 151.175 111.987ZM151.175 86.0705C149.12 86.0705 147.454 84.4129 147.454 82.3681C147.454 80.3234 149.12 78.6658 151.175 78.6658C153.23 78.6658 154.896 80.3234 154.896 82.3681C154.896 84.4129 153.23 86.0705 151.175 86.0705ZM126.721 111.987C124.666 111.987 123 110.33 123 108.285C123 106.24 124.666 104.582 126.721 104.582C128.776 104.582 130.442 106.24 130.442 108.285C130.442 110.33 128.776 111.987 126.721 111.987ZM126.721 86.0705C124.666 86.0705 123 84.4129 123 82.3681C123 80.3234 124.666 78.6658 126.721 78.6658C128.776 78.6658 130.442 80.3234 130.442 82.3681C130.442 84.4129 128.776 86.0705 126.721 86.0705ZM126.721 60.1541C124.666 60.1541 123 58.4965 123 56.4517C123 54.407 124.666 52.7494 126.721 52.7494C128.776 52.7494 130.442 54.407 130.442 56.4517C130.442 58.4965 128.776 60.1541 126.721 60.1541ZM126.721 34.2375C124.666 34.2375 123 32.5799 123 30.5351C123 28.4904 124.666 26.8328 126.721 26.8328C128.776 26.8328 130.442 28.4904 130.442 30.5351C130.442 32.5799 128.776 34.2375 126.721 34.2375Z" fill="#FAFAFA" fill-opacity="0.5"/>
<path fill-rule="evenodd" clip-rule="evenodd" d="M150.721 61.4047C148.666 61.4047 147 59.7471 147 57.7024C147 55.6576 148.666 54 150.721 54C152.776 54 154.442 55.6576 154.442 57.7024C154.442 59.7471 152.776 61.4047 150.721 61.4047Z" fill="#FAFAFA" fill-opacity="0.5"/>
<path fill-rule="evenodd" clip-rule="evenodd" d="M176.721 86.4047C174.666 86.4047 173 84.7471 173 82.7024C173 80.6576 174.666 79 176.721 79C178.776 79 180.442 80.6576 180.442 82.7024C180.442 84.7471 178.776 86.4047 176.721 86.4047Z" fill="#FAFAFA" fill-opacity="0.5"/>
<path fill-rule="evenodd" clip-rule="evenodd" d="M348.145 268C346.09 268 344.424 266.342 344.424 264.298C344.424 262.253 346.09 260.595 348.145 260.595C350.201 260.595 351.867 262.253 351.867 264.298C351.867 266.342 350.201 268 348.145 268ZM348.145 242.083C346.09 242.083 344.424 240.426 344.424 238.381C344.424 236.336 346.09 234.679 348.145 234.679C350.201 234.679 351.867 236.336 351.867 238.381C351.867 240.426 350.201 242.083 348.145 242.083ZM348.145 216.167C346.09 216.167 344.424 214.509 344.424 212.465C344.424 210.42 346.09 208.762 348.145 208.762C350.201 208.762 351.867 210.42 351.867 212.465C351.867 214.509 350.201 216.167 348.145 216.167ZM322.629 268C320.573 268 318.907 266.342 318.907 264.298C318.907 262.253 320.573 260.595 322.629 260.595C324.684 260.595 326.35 262.253 326.35 264.298C326.35 266.342 324.684 268 322.629 268ZM322.629 242.083C320.573 242.083 318.907 240.426 318.907 238.381C318.907 236.336 320.573 234.679 322.629 234.679C324.684 234.679 326.35 236.336 326.35 238.381C326.35 240.426 324.684 242.083 322.629 242.083ZM322.629 216.167C320.573 216.167 318.907 214.509 318.907 212.465C318.907 210.42 320.573 208.762 322.629 208.762C324.684 208.762 326.35 210.42 326.35 212.465C326.35 214.509 324.684 216.167 322.629 216.167ZM322.629 190.25C320.573 190.25 318.907 188.593 318.907 186.548C318.907 184.503 320.573 182.846 322.629 182.846C324.684 182.846 326.35 184.503 326.35 186.548C326.35 188.593 324.684 190.25 322.629 190.25ZM298.175 268C296.12 268 294.454 266.342 294.454 264.298C294.454 262.253 296.12 260.595 298.175 260.595C300.23 260.595 301.896 262.253 301.896 264.298C301.896 266.342 300.23 268 298.175 268ZM298.175 242.083C296.12 242.083 294.454 240.426 294.454 238.381C294.454 236.336 296.12 234.679 298.175 234.679C300.23 234.679 301.896 236.336 301.896 238.381C301.896 240.426 300.23 242.083 298.175 242.083ZM298.175 216.167C296.12 216.167 294.454 214.509 294.454 212.465C294.454 210.42 296.12 208.762 298.175 208.762C300.23 208.762 301.896 210.42 301.896 212.465C301.896 214.509 300.23 216.167 298.175 216.167ZM298.175 190.25C296.12 190.25 294.454 188.593 294.454 186.548C294.454 184.503 296.12 182.846 298.175 182.846C300.23 182.846 301.896 184.503 301.896 186.548C301.896 188.593 300.23 190.25 298.175 190.25ZM273.721 268C271.666 268 270 266.342 270 264.298C270 262.253 271.666 260.595 273.721 260.595C275.776 260.595 277.442 262.253 277.442 264.298C277.442 266.342 275.776 268 273.721 268ZM273.721 242.083C271.666 242.083 270 240.426 270 238.381C270 236.336 271.666 234.679 273.721 234.679C275.776 234.679 277.442 236.336 277.442 238.381C277.442 240.426 275.776 242.083 273.721 242.083ZM273.721 216.167C271.666 216.167 270 214.509 270 212.465C270 210.42 271.666 208.762 273.721 208.762C275.776 208.762 277.442 210.42 277.442 212.465C277.442 214.509 275.776 216.167 273.721 216.167ZM273.721 190.25C271.666 190.25 270 188.593 270 186.548C270 184.503 271.666 182.846 273.721 182.846C275.776 182.846 277.442 184.503 277.442 186.548C277.442 188.593 275.776 190.25 273.721 190.25ZM273.721 164.334C271.666 164.334 270 162.676 270 160.632C270 158.587 271.666 156.929 273.721 156.929C275.776 156.929 277.442 158.587 277.442 160.632C277.442 162.676 275.776 164.334 273.721 164.334Z" fill="#FAFAFA" fill-opacity="0.5"/>
<path fill-rule="evenodd" clip-rule="evenodd" d="M103.053 344.238C100.998 344.238 99.3316 342.58 99.3316 340.535C99.3316 338.49 100.998 336.833 103.053 336.833C105.108 336.833 106.774 338.49 106.774 340.535C106.774 342.58 105.108 344.238 103.053 344.238ZM103.053 318.321C100.998 318.321 99.3316 316.664 99.3316 314.619C99.3316 312.574 100.998 310.916 103.053 310.916C105.108 310.916 106.774 312.574 106.774 314.619C106.774 316.664 105.108 318.321 103.053 318.321ZM103.053 292.405C100.998 292.405 99.3316 290.747 99.3316 288.702C99.3316 286.658 100.998 285 103.053 285C105.108 285 106.774 286.658 106.774 288.702C106.774 290.747 105.108 292.405 103.053 292.405ZM78.5991 344.238C76.544 344.238 74.8779 342.58 74.8779 340.535C74.8779 338.49 76.544 336.833 78.5991 336.833C80.6543 336.833 82.3203 338.49 82.3203 340.535C82.3203 342.58 80.6543 344.238 78.5991 344.238ZM78.5991 318.321C76.544 318.321 74.8779 316.664 74.8779 314.619C74.8779 312.574 76.544 310.916 78.5991 310.916C80.6543 310.916 82.3203 312.574 82.3203 314.619C82.3203 316.664 80.6543 318.321 78.5991 318.321ZM78.5991 292.405C76.544 292.405 74.8779 290.747 74.8779 288.702C74.8779 286.658 76.544 285 78.5991 285C80.6543 285 82.3203 286.658 82.3203 288.702C82.3203 290.747 80.6543 292.405 78.5991 292.405ZM54.1455 318.321C52.0903 318.321 50.4242 316.664 50.4242 314.619C50.4242 312.574 52.0903 310.916 54.1455 310.916C56.2006 310.916 57.8667 312.574 57.8667 314.619C57.8667 316.664 56.2006 318.321 54.1455 318.321ZM54.1455 292.405C52.0903 292.405 50.4242 290.747 50.4242 288.702C50.4242 286.658 52.0903 285 54.1455 285C56.2006 285 57.8667 286.658 57.8667 288.702C57.8667 290.747 56.2006 292.405 54.1455 292.405ZM28.6286 292.405C26.5734 292.405 24.9073 290.747 24.9073 288.702C24.9073 286.658 26.5734 285 28.6286 285C30.6837 285 32.3498 286.658 32.3498 288.702C32.3498 290.747 30.6837 292.405 28.6286 292.405Z" fill="#FAFAFA" fill-opacity="0.5"/>
<path fill-rule="evenodd" clip-rule="evenodd" d="M250.053 344.238C247.998 344.238 246.332 342.58 246.332 340.535C246.332 338.49 247.998 336.833 250.053 336.833C252.108 336.833 253.774 338.49 253.774 340.535C253.774 342.58 252.108 344.238 250.053 344.238ZM250.053 318.321C247.998 318.321 246.332 316.664 246.332 314.619C246.332 312.574 247.998 310.916 250.053 310.916C252.108 310.916 253.774 312.574 253.774 314.619C253.774 316.664 252.108 318.321 250.053 318.321ZM250.053 292.405C247.998 292.405 246.332 290.747 246.332 288.702C246.332 286.658 247.998 285 250.053 285C252.108 285 253.774 286.658 253.774 288.702C253.774 290.747 252.108 292.405 250.053 292.405ZM225.599 370.154C223.544 370.154 221.878 368.497 221.878 366.452C221.878 364.407 223.544 362.749 225.599 362.749C227.654 362.749 229.32 364.407 229.32 366.452C229.32 368.497 227.654 370.154 225.599 370.154ZM225.599 344.238C223.544 344.238 221.878 342.58 221.878 340.535C221.878 338.49 223.544 336.833 225.599 336.833C227.654 336.833 229.32 338.49 229.32 340.535C229.32 342.58 227.654 344.238 225.599 344.238ZM225.599 318.321C223.544 318.321 221.878 316.664 221.878 314.619C221.878 312.574 223.544 310.916 225.599 310.916C227.654 310.916 229.32 312.574 229.32 314.619C229.32 316.664 227.654 318.321 225.599 318.321ZM225.599 292.405C223.544 292.405 221.878 290.747 221.878 288.702C221.878 286.658 223.544 285 225.599 285C227.654 285 229.32 286.658 229.32 288.702C229.32 290.747 227.654 292.405 225.599 292.405ZM201.145 370.154C199.09 370.154 197.424 368.497 197.424 366.452C197.424 364.407 199.09 362.749 201.145 362.749C203.201 362.749 204.867 364.407 204.867 366.452C204.867 368.497 203.201 370.154 201.145 370.154ZM201.145 344.238C199.09 344.238 197.424 342.58 197.424 340.535C197.424 338.49 199.09 336.833 201.145 336.833C203.201 336.833 204.867 338.49 204.867 340.535C204.867 342.58 203.201 344.238 201.145 344.238ZM201.145 318.321C199.09 318.321 197.424 316.664 197.424 314.619C197.424 312.574 199.09 310.916 201.145 310.916C203.201 310.916 204.867 312.574 204.867 314.619C204.867 316.664 203.201 318.321 201.145 318.321ZM201.145 292.405C199.09 292.405 197.424 290.747 197.424 288.702C197.424 286.658 199.09 285 201.145 285C203.201 285 204.867 286.658 204.867 288.702C204.867 290.747 203.201 292.405 201.145 292.405ZM175.629 370.154C173.573 370.154 171.907 368.497 171.907 366.452C171.907 364.407 173.573 362.749 175.629 362.749C177.684 362.749 179.35 364.407 179.35 366.452C179.35 368.497 177.684 370.154 175.629 370.154ZM175.629 344.238C173.573 344.238 171.907 342.58 171.907 340.535C171.907 338.49 173.573 336.833 175.629 336.833C177.684 336.833 179.35 338.49 179.35 340.535C179.35 342.58 177.684 344.238 175.629 344.238ZM175.629 318.321C173.573 318.321 171.907 316.664 171.907 314.619C171.907 312.574 173.573 310.916 175.629 310.916C177.684 310.916 179.35 312.574 179.35 314.619C179.35 316.664 177.684 318.321 175.629 318.321ZM175.629 292.405C173.573 292.405 171.907 290.747 171.907 288.702C171.907 286.658 173.573 285 175.629 285C177.684 285 179.35 286.658 179.35 288.702C179.35 290.747 177.684 292.405 175.629 292.405ZM151.175 370.154C149.12 370.154 147.454 368.497 147.454 366.452C147.454 364.407 149.12 362.749 151.175 362.749C153.23 362.749 154.896 364.407 154.896 366.452C154.896 368.497 153.23 370.154 151.175 370.154ZM151.175 344.238C149.12 344.238 147.454 342.58 147.454 340.535C147.454 338.49 149.12 336.833 151.175 336.833C153.23 336.833 154.896 338.49 154.896 340.535C154.896 342.58 153.23 344.238 151.175 344.238ZM151.175 318.321C149.12 318.321 147.454 316.664 147.454 314.619C147.454 312.574 149.12 310.916 151.175 310.916C153.23 310.916 154.896 312.574 154.896 314.619C154.896 316.664 153.23 318.321 151.175 318.321ZM151.175 292.405C149.12 292.405 147.454 290.747 147.454 288.702C147.454 286.658 149.12 285 151.175 285C153.23 285 154.896 286.658 154.896 288.702C154.896 290.747 153.23 292.405 151.175 292.405ZM126.721 370.154C124.666 370.154 123 368.497 123 366.452C123 364.407 124.666 362.749 126.721 362.749C128.776 362.749 130.442 364.407 130.442 366.452C130.442 368.497 128.776 370.154 126.721 370.154ZM126.721 344.238C124.666 344.238 123 342.58 123 340.535C123 338.49 124.666 336.833 126.721 336.833C128.776 336.833 130.442 338.49 130.442 340.535C130.442 342.58 128.776 344.238 126.721 344.238ZM126.721 318.321C124.666 318.321 123 316.664 123 314.619C123 312.574 124.666 310.916 126.721 310.916C128.776 310.916 130.442 312.574 130.442 314.619C130.442 316.664 128.776 318.321 126.721 318.321ZM126.721 292.405C124.666 292.405 123 290.747 123 288.702C123 286.658 124.666 285 126.721 285C128.776 285 130.442 286.658 130.442 288.702C130.442 290.747 128.776 292.405 126.721 292.405Z" fill="#FAFAFA" fill-opacity="0.5"/>
<path fill-rule="evenodd" clip-rule="evenodd" d="M348.145 292.405C346.09 292.405 344.424 290.747 344.424 288.702C344.424 286.658 346.09 285 348.145 285C350.201 285 351.867 286.658 351.867 288.702C351.867 290.747 350.201 292.405 348.145 292.405ZM322.629 318.321C320.573 318.321 318.907 316.664 318.907 314.619C318.907 312.574 320.573 310.916 322.629 310.916C324.684 310.916 326.35 312.574 326.35 314.619C326.35 316.664 324.684 318.321 322.629 318.321ZM322.629 292.405C320.573 292.405 318.907 290.747 318.907 288.702C318.907 286.658 320.573 285 322.629 285C324.684 285 326.35 286.658 326.35 288.702C326.35 290.747 324.684 292.405 322.629 292.405ZM298.175 318.321C296.12 318.321 294.454 316.664 294.454 314.619C294.454 312.574 296.12 310.916 298.175 310.916C300.23 310.916 301.896 312.574 301.896 314.619C301.896 316.664 300.23 318.321 298.175 318.321ZM298.175 292.405C296.12 292.405 294.454 290.747 294.454 288.702C294.454 286.658 296.12 285 298.175 285C300.23 285 301.896 286.658 301.896 288.702C301.896 290.747 300.23 292.405 298.175 292.405ZM273.721 344.238C271.666 344.238 270 342.58 270 340.535C270 338.49 271.666 336.833 273.721 336.833C275.776 336.833 277.442 338.49 277.442 340.535C277.442 342.58 275.776 344.238 273.721 344.238ZM273.721 318.321C271.666 318.321 270 316.664 270 314.619C270 312.574 271.666 310.916 273.721 310.916C275.776 310.916 277.442 312.574 277.442 314.619C277.442 316.664 275.776 318.321 273.721 318.321ZM273.721 292.405C271.666 292.405 270 290.747 270 288.702C270 286.658 271.666 285 273.721 285C275.776 285 277.442 286.658 277.442 288.702C277.442 290.747 275.776 292.405 273.721 292.405Z" fill="#FAFAFA" fill-opacity="0.5"/>
</svg>
