<svg width="100" height="86" viewBox="0 0 100 86" fill="none" xmlns="http://www.w3.org/2000/svg">
<path d="M11.792 85.28C8.08 85.28 5.2 84.256 3.152 82.208C1.168 80.16 0.176001 77.312 0.176001 73.664V11.936C0.176001 8.288 1.168 5.44 3.152 3.392C5.2 1.344 8.08 0.319996 11.792 0.319996H18.992C20.336 0.319996 21.456 0.703997 22.352 1.472C23.248 2.24 23.696 3.35999 23.696 4.832C23.696 6.304 23.248 7.424 22.352 8.192C21.456 8.96 20.336 9.344 18.992 9.344H15.92C14.576 9.344 13.552 9.696 12.848 10.4C12.208 11.04 11.888 12.096 11.888 13.568V72.032C11.888 73.504 12.208 74.56 12.848 75.2C13.552 75.904 14.576 76.256 15.92 76.256H18.992C20.336 76.256 21.456 76.64 22.352 77.408C23.248 78.176 23.696 79.296 23.696 80.768C23.696 82.24 23.248 83.36 22.352 84.128C21.456 84.896 20.336 85.28 18.992 85.28H11.792ZM80.4853 85.28C79.1413 85.28 78.0213 84.896 77.1253 84.128C76.2293 83.36 75.7812 82.24 75.7812 80.768C75.7812 79.296 76.2293 78.176 77.1253 77.408C78.0213 76.64 79.1413 76.256 80.4853 76.256H83.5573C84.9013 76.256 85.8933 75.904 86.5333 75.2C87.2373 74.56 87.5893 73.504 87.5893 72.032V13.568C87.5893 12.096 87.2373 11.04 86.5333 10.4C85.8933 9.696 84.9013 9.344 83.5573 9.344H80.4853C79.1413 9.344 78.0213 8.96 77.1253 8.192C76.2293 7.424 75.7812 6.304 75.7812 4.832C75.7812 3.35999 76.2293 2.24 77.1253 1.472C78.0213 0.703997 79.1413 0.319996 80.4853 0.319996H87.6853C91.3973 0.319996 94.2453 1.344 96.2293 3.392C98.2773 5.44 99.3013 8.288 99.3013 11.936V73.664C99.3013 77.312 98.2773 80.16 96.2293 82.208C94.2453 84.256 91.3973 85.28 87.6853 85.28H80.4853Z" fill="#EAEAEA"/>
</svg>
