<svg width="613" height="90" viewBox="0 0 613 90" fill="none" xmlns="http://www.w3.org/2000/svg">
<path d="M153.944 72.672C151 72.672 148.184 72.32 145.496 71.616C142.872 70.912 140.536 69.92 138.488 68.64C137.336 67.872 136.504 67.168 135.992 66.528C135.544 65.824 135.32 64.992 135.32 64.032C135.32 63.2 135.544 62.528 135.992 62.016C136.504 61.44 137.144 61.152 137.912 61.152C138.68 61.152 139.8 61.632 141.272 62.592C143.192 63.744 145.08 64.672 146.936 65.376C148.856 66.016 151.224 66.336 154.04 66.336C157.496 66.336 160.184 65.728 162.104 64.512C164.024 63.296 164.984 61.536 164.984 59.232C164.984 57.824 164.632 56.704 163.928 55.872C163.224 54.976 162.008 54.208 160.28 53.568C158.552 52.864 156.024 52.16 152.696 51.456C147.064 50.24 143.032 48.608 140.6 46.56C138.168 44.512 136.952 41.728 136.952 38.208C136.952 35.456 137.72 33.024 139.256 30.912C140.792 28.8 142.904 27.136 145.592 25.92C148.344 24.704 151.448 24.096 154.904 24.096C157.4 24.096 159.8 24.448 162.104 25.152C164.472 25.792 166.552 26.72 168.344 27.936C170.52 29.472 171.608 31.072 171.608 32.736C171.608 33.568 171.352 34.272 170.84 34.848C170.328 35.424 169.72 35.712 169.016 35.712C168.248 35.712 167.096 35.168 165.56 34.08C163.768 32.928 162.072 32.032 160.472 31.392C158.872 30.752 156.888 30.432 154.52 30.432C151.512 30.432 149.08 31.104 147.224 32.448C145.432 33.792 144.536 35.584 144.536 37.824C144.536 39.232 144.856 40.384 145.496 41.28C146.2 42.112 147.32 42.88 148.856 43.584C150.456 44.224 152.728 44.864 155.672 45.504C160.024 46.464 163.384 47.52 165.752 48.672C168.184 49.824 169.912 51.232 170.936 52.896C171.96 54.56 172.472 56.672 172.472 59.232C172.472 63.264 170.776 66.528 167.384 69.024C163.992 71.456 159.512 72.672 153.944 72.672ZM231.269 65.856C232.293 66.816 232.805 67.84 232.805 68.928C232.805 69.888 232.453 70.72 231.749 71.424C231.109 72.128 230.309 72.48 229.349 72.48C228.517 72.48 227.653 72.096 226.757 71.328L201.701 49.728V68.64C201.701 69.856 201.317 70.816 200.549 71.52C199.845 72.16 198.949 72.48 197.861 72.48C196.709 72.48 195.749 72.16 194.981 71.52C194.277 70.816 193.925 69.856 193.925 68.64V7.68C193.925 6.464 194.277 5.536 194.981 4.89599C195.749 4.192 196.709 3.84 197.861 3.84C198.949 3.84 199.845 4.192 200.549 4.89599C201.317 5.536 201.701 6.464 201.701 7.68V46.656L224.645 25.632C225.413 24.864 226.277 24.48 227.237 24.48C228.197 24.48 229.029 24.832 229.733 25.536C230.437 26.24 230.789 27.072 230.789 28.032C230.789 29.12 230.341 30.08 229.445 30.912L210.533 47.808L231.269 65.856ZM284.283 26.688C284.987 25.152 286.107 24.384 287.643 24.384C288.603 24.384 289.467 24.704 290.236 25.344C291.003 25.984 291.387 26.784 291.387 27.744C291.387 28.32 291.259 28.832 291.003 29.28L264.027 87.456C263.707 88.16 263.227 88.704 262.587 89.088C262.011 89.472 261.403 89.664 260.763 89.664C259.803 89.664 258.939 89.344 258.171 88.704C257.467 88.128 257.115 87.36 257.115 86.4C257.115 85.888 257.243 85.376 257.499 84.864L264.219 70.368L245.211 29.28C244.955 28.832 244.827 28.352 244.827 27.84C244.827 26.88 245.243 26.048 246.075 25.344C246.971 24.64 247.931 24.288 248.955 24.288C249.595 24.288 250.203 24.48 250.779 24.864C251.419 25.248 251.899 25.792 252.219 26.496L268.251 62.496L284.283 26.688ZM332.636 24.288C335.324 24.096 336.668 25.184 336.668 27.552C336.668 28.576 336.38 29.408 335.804 30.048C335.228 30.624 334.236 30.976 332.828 31.104L329.948 31.392C325.66 31.776 322.46 33.312 320.348 36C318.3 38.624 317.276 41.728 317.276 45.312V68.64C317.276 69.92 316.924 70.88 316.22 71.52C315.516 72.16 314.588 72.48 313.436 72.48C312.284 72.48 311.324 72.16 310.556 71.52C309.852 70.816 309.5 69.856 309.5 68.64V28.128C309.5 26.912 309.884 25.984 310.652 25.344C311.42 24.64 312.348 24.288 313.436 24.288C314.46 24.288 315.324 24.64 316.028 25.344C316.732 25.984 317.084 26.88 317.084 28.032V33.408C318.428 30.592 320.316 28.448 322.748 26.976C325.244 25.504 328.092 24.64 331.292 24.384L332.636 24.288ZM371.398 72.672C366.982 72.672 363.078 71.68 359.686 69.696C356.358 67.712 353.766 64.896 351.91 61.248C350.118 57.536 349.222 53.248 349.222 48.384C349.222 43.52 350.118 39.264 351.91 35.616C353.766 31.904 356.358 29.056 359.686 27.072C363.078 25.088 366.982 24.096 371.398 24.096C375.814 24.096 379.718 25.088 383.11 27.072C386.502 29.056 389.094 31.904 390.886 35.616C392.742 39.264 393.67 43.52 393.67 48.384C393.67 53.248 392.742 57.536 390.886 61.248C389.094 64.896 386.502 67.712 383.11 69.696C379.718 71.68 375.814 72.672 371.398 72.672ZM371.398 66.24C376.006 66.24 379.526 64.736 381.958 61.728C384.454 58.656 385.702 54.208 385.702 48.384C385.702 42.688 384.454 38.304 381.958 35.232C379.462 32.096 375.942 30.528 371.398 30.528C366.854 30.528 363.334 32.096 360.838 35.232C358.342 38.304 357.094 42.688 357.094 48.384C357.094 54.144 358.31 58.56 360.742 61.632C363.238 64.704 366.79 66.24 371.398 66.24ZM434.152 72.672C429.8 72.672 425.928 71.68 422.536 69.696C419.208 67.712 416.616 64.896 414.76 61.248C412.968 57.6 412.072 53.376 412.072 48.576C412.072 43.776 413 39.52 414.856 35.808C416.776 32.096 419.432 29.216 422.824 27.168C426.216 25.12 430.12 24.096 434.536 24.096C436.968 24.096 439.368 24.448 441.736 25.152C444.168 25.792 446.28 26.752 448.072 28.032C449.224 28.8 450.024 29.568 450.472 30.336C450.984 31.04 451.24 31.84 451.24 32.736C451.24 33.632 450.984 34.368 450.472 34.944C450.024 35.52 449.416 35.808 448.648 35.808C448.2 35.808 447.72 35.68 447.208 35.424C446.696 35.168 446.248 34.912 445.864 34.656C445.544 34.4 445.32 34.24 445.192 34.176C443.528 33.088 441.928 32.224 440.392 31.584C438.92 30.944 437.096 30.624 434.92 30.624C430.248 30.624 426.6 32.224 423.976 35.424C421.416 38.56 420.136 42.944 420.136 48.576C420.136 54.208 421.416 58.56 423.976 61.632C426.6 64.704 430.248 66.24 434.92 66.24C437.096 66.24 438.952 65.92 440.488 65.28C442.088 64.64 443.688 63.776 445.288 62.688C445.992 62.24 446.664 61.856 447.304 61.536C447.944 61.216 448.488 61.056 448.936 61.056C449.64 61.056 450.216 61.344 450.664 61.92C451.176 62.496 451.432 63.232 451.432 64.128C451.432 64.96 451.208 65.728 450.76 66.432C450.312 67.072 449.48 67.808 448.264 68.64C446.472 69.856 444.296 70.848 441.736 71.616C439.24 72.32 436.712 72.672 434.152 72.672ZM507.738 65.856C508.762 66.816 509.274 67.84 509.274 68.928C509.274 69.888 508.922 70.72 508.218 71.424C507.578 72.128 506.778 72.48 505.818 72.48C504.986 72.48 504.122 72.096 503.226 71.328L478.17 49.728V68.64C478.17 69.856 477.786 70.816 477.018 71.52C476.314 72.16 475.418 72.48 474.33 72.48C473.178 72.48 472.218 72.16 471.45 71.52C470.746 70.816 470.394 69.856 470.394 68.64V7.68C470.394 6.464 470.746 5.536 471.45 4.89599C472.218 4.192 473.178 3.84 474.33 3.84C475.418 3.84 476.314 4.192 477.018 4.89599C477.786 5.536 478.17 6.464 478.17 7.68V46.656L501.114 25.632C501.882 24.864 502.746 24.48 503.706 24.48C504.666 24.48 505.498 24.832 506.202 25.536C506.906 26.24 507.258 27.072 507.258 28.032C507.258 29.12 506.81 30.08 505.914 30.912L487.002 47.808L507.738 65.856ZM563.342 61.152C564.046 61.152 564.654 61.44 565.166 62.016C565.678 62.592 565.934 63.328 565.934 64.224C565.934 65.824 564.814 67.296 562.574 68.64C560.27 69.984 557.838 71.008 555.278 71.712C552.718 72.352 550.222 72.672 547.79 72.672C540.558 72.672 534.83 70.528 530.606 66.24C526.446 61.952 524.366 56.032 524.366 48.48C524.366 43.68 525.294 39.456 527.15 35.808C529.006 32.096 531.598 29.216 534.926 27.168C538.318 25.12 542.158 24.096 546.446 24.096C552.526 24.096 557.358 26.08 560.942 30.048C564.526 34.016 566.318 39.392 566.318 46.176C566.318 47.456 566.062 48.384 565.55 48.96C565.038 49.536 564.206 49.824 563.054 49.824H532.142C532.718 60.832 537.934 66.336 547.79 66.336C550.286 66.336 552.43 66.016 554.222 65.376C556.014 64.672 557.934 63.744 559.982 62.592C561.646 61.632 562.766 61.152 563.342 61.152ZM546.542 30.144C542.446 30.144 539.15 31.424 536.654 33.984C534.222 36.544 532.782 40.16 532.334 44.832H559.502C559.374 40.096 558.19 36.48 555.95 33.984C553.71 31.424 550.574 30.144 546.542 30.144ZM608.694 66.336C610.934 66.528 612.054 67.552 612.054 69.408C612.054 70.496 611.638 71.328 610.806 71.904C610.038 72.416 608.854 72.608 607.254 72.48L604.662 72.288C599.542 71.904 595.766 70.368 593.334 67.68C590.902 64.992 589.686 60.928 589.686 55.488V31.392H583.254C582.166 31.392 581.302 31.136 580.662 30.624C580.086 30.048 579.798 29.312 579.798 28.416C579.798 27.456 580.086 26.688 580.662 26.112C581.302 25.536 582.166 25.248 583.254 25.248H589.686V14.4C589.686 13.184 590.038 12.256 590.742 11.616C591.446 10.912 592.406 10.56 593.622 10.56C594.774 10.56 595.702 10.912 596.406 11.616C597.11 12.256 597.462 13.184 597.462 14.4V25.248H608.118C609.142 25.248 609.942 25.536 610.518 26.112C611.158 26.688 611.478 27.456 611.478 28.416C611.478 29.312 611.158 30.048 610.518 30.624C609.942 31.136 609.142 31.392 608.118 31.392H597.462V55.872C597.462 59.392 598.166 61.952 599.574 63.552C601.046 65.088 603.222 65.952 606.102 66.144L608.694 66.336Z" fill="#303030"/>
<path d="M43.6724 54.845C40.1133 57.3872 38.0008 61.4915 38 65.8657V67.8105H39.9447C44.3189 67.8097 48.4233 65.6972 50.9655 62.1381L43.6724 54.845Z" fill="#F98500"/>
<path d="M45.7995 57.2759C44.4649 58.2295 43.6728 59.7683 43.6724 61.4088V62.138H44.4016C46.0421 62.1376 47.5809 61.3455 48.5345 60.0108L49.3448 58.8966L46.9138 56.4656L45.7995 57.2759Z" fill="#FFB531"/>
<path d="M85 21.5656V20.8103C80.8209 20.8119 76.6813 21.6187 72.8076 23.1871L82.8558 33.1404C84.2692 29.4447 84.9957 25.522 85 21.5656Z" fill="#FFB531"/>
<path d="M72.8076 23.1871C66.5389 25.7175 61.2143 30.1376 57.5729 35.8333L48.5345 49.9827L55.8276 57.2758L68.8532 49.6773C75.2731 45.9274 80.2147 40.0912 82.855 33.1404L72.8076 23.1871Z" fill="#E94F4F"/>
<path d="M52.1486 53.5968L55.8276 57.2758L68.8533 49.6772C75.2731 45.9274 80.2147 40.0912 82.855 33.1403L79.821 30.1348C70.6983 41.9497 59.4278 49.5336 52.1486 53.5968Z" fill="#E94F4F"/>
<path d="M60.3122 39.074L58.9467 38.2019L59.6233 37.1419C59.7519 36.9393 59.884 36.7368 60.017 36.5409L61.3623 37.4442C61.2357 37.633 61.1118 37.8229 60.9888 38.0116L60.3122 39.074Z" fill="#F26666"/>
<path d="M52.716 47.9518L57.9092 39.8143L59.2755 40.6864L54.0822 48.8239L52.716 47.9518Z" fill="#F26666"/>
<path d="M50.1552 51.6035L43.6724 54.8449L50.9655 62.138L54.2069 55.6552L50.1552 51.6035Z" fill="#D6D6D4"/>
<path d="M75.2759 36.2068C75.2759 39.3398 72.7364 41.8793 69.6034 41.8793C66.4705 41.8793 63.931 39.3398 63.931 36.2068C63.931 33.0739 66.4705 30.5344 69.6034 30.5344C72.7364 30.5344 75.2759 33.0739 75.2759 36.2068Z" fill="#4DB7E5"/>
<path d="M67.9828 36.207H66.3621C66.3621 34.4169 67.8134 32.9656 69.6034 32.9656V34.5863C68.7084 34.5863 67.9828 35.3119 67.9828 36.207Z" fill="#9FE4ED"/>
<path d="M49.7654 36.2069C47.9473 36.2061 46.2127 36.969 44.9845 38.3091L38 45.931L46.1715 43.7026C46.6412 43.574 47.1437 43.663 47.5401 43.9455L50.8706 46.3247L57.3355 36.2069H49.7654Z" fill="#E94F4F"/>
<path d="M59.5869 55.0831L61.8632 58.2702C62.1454 58.6667 62.2348 59.1692 62.1062 59.6389L59.8793 67.8104L67.5012 60.8235C68.841 59.5958 69.6035 57.8619 69.6035 56.045V49.2057C69.3522 49.362 69.11 49.5297 68.8533 49.6773L59.5869 55.0831Z" fill="#CF3A3A"/>
<path d="M57.0153 20H55.5732V21.4421H54.1311V22.8842H55.5732V24.3263H57.0153V22.8842H58.4574V21.4421H57.0153V20Z" fill="#FFB531"/>
<path d="M45.4784 26.4895H46.9205V27.9316H45.4784V26.4895Z" fill="#FFB531"/>
<path d="M80.8101 44.5158H79.368V43.0737H77.9259V44.5158H76.4838V45.9579H77.9259V47.4001H79.368V45.9579H80.8101V44.5158Z" fill="#FFB531"/>
<path d="M71.4364 56.7737H69.9943V58.2158H68.5522V59.6579H69.9943V61.1H71.4364V59.6579H72.8785V58.2158H71.4364V56.7737Z" fill="#FFB531"/>
<path d="M72.1574 48.8422H73.5996V50.2843H72.1574V48.8422Z" fill="#FFB531"/>
<path d="M40.431 30.8158H41.8731V32.2579H40.431V30.8158Z" fill="#FFB531"/>
<path d="M73.3311 31.9348C72.2054 36.7011 68.3733 39.0503 65.541 40.1566C66.9904 41.6542 69.1441 42.2358 71.1501 41.6716C73.1562 41.107 74.6907 39.4875 75.1461 37.4541C75.6015 35.4203 74.9047 33.3011 73.3311 31.9348V31.9348Z" fill="#4DB7E5"/>
<path d="M84.9767 22.568C83.479 25.2119 81.4563 27.5215 79.0336 29.3546L82.855 33.1405C84.1445 29.7586 84.8615 26.1857 84.9767 22.568Z" fill="#FFB531"/>
<path d="M48.6599 59.8323L50.9655 62.1379L54.2069 55.6552L52.3543 53.8026L48.6599 59.8323Z" fill="#D6D6D4"/>
<path d="M47.6779 52.8424L46.1497 53.6061L52.2044 59.6607L52.968 58.1326L47.6779 52.8424Z" fill="#A8A8A6"/>
<path d="M20.832 85.28C17.504 85.28 14.912 84.352 13.056 82.496C11.264 80.64 10.368 78.016 10.368 74.624V10.976C10.368 7.584 11.264 4.96 13.056 3.10399C14.912 1.248 17.504 0.319996 20.832 0.319996H27.744C28.896 0.319996 29.856 0.639996 30.624 1.27999C31.392 1.91999 31.776 2.848 31.776 4.064C31.776 5.28 31.392 6.208 30.624 6.848C29.856 7.488 28.896 7.808 27.744 7.808H24C22.592 7.808 21.536 8.16 20.832 8.86399C20.192 9.504 19.872 10.56 19.872 12.032V73.568C19.872 75.04 20.192 76.096 20.832 76.736C21.536 77.44 22.592 77.792 24 77.792H27.744C28.896 77.792 29.856 78.112 30.624 78.752C31.392 79.392 31.776 80.32 31.776 81.536C31.776 82.752 31.392 83.68 30.624 84.32C29.856 84.96 28.896 85.28 27.744 85.28H20.832ZM96.201 85.28C95.049 85.28 94.089 84.96 93.321 84.32C92.617 83.68 92.265 82.752 92.265 81.536C92.265 80.32 92.649 79.392 93.417 78.752C94.185 78.112 95.113 77.792 96.201 77.792H100.041C102.793 77.792 104.169 76.384 104.169 73.568V12.032C104.169 9.216 102.793 7.808 100.041 7.808H96.201C95.113 7.808 94.185 7.488 93.417 6.848C92.649 6.208 92.265 5.28 92.265 4.064C92.265 2.848 92.617 1.91999 93.321 1.27999C94.089 0.639996 95.049 0.319996 96.201 0.319996H103.113C106.505 0.319996 109.097 1.248 110.889 3.10399C112.745 4.96 113.673 7.584 113.673 10.976V74.624C113.673 78.016 112.745 80.64 110.889 82.496C109.097 84.352 106.505 85.28 103.113 85.28H96.201Z" fill="#303030"/>
</svg>
