<svg width="136" height="86" viewBox="0 0 136 86" fill="none" xmlns="http://www.w3.org/2000/svg">
<path d="M49.6276 53.3051L55.6949 59.3724L56.6062 57.549L51.4511 52.3938L49.6276 53.3051Z" fill="white"/>
<path d="M52.3328 58.4486L50.5515 56.6672C49.6103 57.5087 49.0605 58.7033 49.0344 59.9657C50.2968 59.9396 51.4914 59.3898 52.3328 58.4486Z" fill="white"/>
<path d="M91.2759 17.7354C87.6651 17.8263 84.0922 18.496 80.6932 19.7179L89.476 28.4998C90.6584 25.0335 91.2662 21.3975 91.2759 17.7354Z" fill="white"/>
<path d="M68.2261 56.2118C68.6781 56.8436 68.8217 57.6459 68.6163 58.3956L67.0302 64.2108L72.9397 58.7938C74.1852 57.6493 74.8949 56.0359 74.8966 54.3446V48.6077L66.3533 53.5911L68.2261 56.2118Z" fill="white"/>
<path d="M50.6041 40.3838C51.3534 40.1793 52.1548 40.3224 52.7871 40.7732L55.5922 42.7777L61.1337 34.1035H54.6552C52.9639 34.1052 51.3504 34.8149 50.2059 36.0604L44.7889 41.9699L50.6041 40.3838Z" fill="white"/>
<path d="M48.9482 61.6896H48.1724C47.6963 61.6896 47.3103 61.3036 47.3103 60.8275V60.0517C47.3125 58.3019 48.0449 56.6321 49.3312 55.4455L48.095 54.2104C44.8799 56.7828 43.0059 60.6756 43 64.7931V65.9999H44.2068C48.3252 65.9949 52.2193 64.1209 54.7924 60.905L53.5561 59.6687C52.3691 60.9555 50.6989 61.6879 48.9482 61.6896V61.6896Z" fill="white"/>
<path d="M53.0759 51.581L57.419 55.9242L58.3304 54.1007L54.8993 50.6697L53.0759 51.581Z" fill="white"/>
<path d="M88.8088 30.2686L78.9379 20.3965C72.6652 23.0568 67.348 27.5591 63.6897 33.3077L63.438 33.7026L59.5793 39.7371L54.4473 47.7697L61.2466 54.569L64.6692 52.5721L74.5257 46.8272C74.7484 46.6972 74.9568 46.5515 75.1778 46.4172L75.3036 46.3368H75.3095C81.3983 42.5464 86.1254 36.9198 88.8088 30.2686V30.2686ZM59.2438 46.669L57.7907 45.7412L63.3188 37.0877L64.7723 38.0154L59.2438 46.669ZM66.5941 35.1636L65.8743 36.2913L64.4217 35.3636L65.1415 34.2359C65.2783 34.0204 65.4189 33.8049 65.5603 33.5965L66.9915 34.5575C66.8568 34.7583 66.725 34.9603 66.5941 35.1636ZM75.7586 40.1378C71.9496 40.1378 68.8621 37.0502 68.8621 33.2412C68.8621 29.4322 71.9496 26.3447 75.7586 26.3447C79.5677 26.3447 82.6552 29.4322 82.6552 33.2412C82.651 37.0481 79.5656 40.1336 75.7586 40.1378Z" fill="white"/>
<path d="M75.7587 28.0688C72.9022 28.0688 70.5862 30.3848 70.5862 33.2413C70.5862 36.0977 72.9022 38.4137 75.7587 38.4137C78.6151 38.4137 80.9311 36.0977 80.9311 33.2413C80.9281 30.3857 78.6143 28.0718 75.7587 28.0688ZM75.7587 31.5171C74.8065 31.5171 74.0345 32.2891 74.0345 33.2413H72.3104C72.3104 31.337 73.8544 29.793 75.7587 29.793V31.5171Z" fill="white"/>
<path d="M62.8276 21.1724H64.5518V19.4483H66.2759V17.7241H64.5518V16H62.8276V17.7241H61.1035V19.4483H62.8276V21.1724Z" fill="white"/>
<path d="M50.7586 23.7585H52.4827V25.4827H50.7586V23.7585Z" fill="white"/>
<path d="M91.2759 45.3103V43.5862H89.5517V45.3103H87.8276V47.0345H89.5517V48.7586H91.2759V47.0345H93V45.3103H91.2759Z" fill="white"/>
<path d="M81.7931 59.9653H80.069V61.6895H78.3448V63.4136H80.069V65.1377H81.7931V63.4136H83.5173V61.6895H81.7931V59.9653Z" fill="white"/>
<path d="M82.6552 50.4829H84.3793V52.207H82.6552V50.4829Z" fill="white"/>
<path d="M44.7241 28.9312H46.4483V30.6553H44.7241V28.9312Z" fill="white"/>
<path d="M26.8089 85.28C23.4809 85.28 20.8889 84.352 19.0329 82.496C17.2409 80.64 16.3449 78.016 16.3449 74.624V10.976C16.3449 7.584 17.2409 4.96 19.0329 3.10399C20.8889 1.248 23.4809 0.319996 26.8089 0.319996H33.7209C34.8729 0.319996 35.8329 0.639996 36.6009 1.27999C37.3689 1.91999 37.7529 2.848 37.7529 4.064C37.7529 5.28 37.3689 6.208 36.6009 6.848C35.8329 7.488 34.8729 7.808 33.7209 7.808H29.9769C28.5689 7.808 27.5129 8.16 26.8089 8.86399C26.1689 9.504 25.8489 10.56 25.8489 12.032V73.568C25.8489 75.04 26.1689 76.096 26.8089 76.736C27.5129 77.44 28.5689 77.792 29.9769 77.792H33.7209C34.8729 77.792 35.8329 78.112 36.6009 78.752C37.3689 79.392 37.7529 80.32 37.7529 81.536C37.7529 82.752 37.3689 83.68 36.6009 84.32C35.8329 84.96 34.8729 85.28 33.7209 85.28H26.8089ZM102.178 85.28C101.026 85.28 100.066 84.96 99.2979 84.32C98.5939 83.68 98.2419 82.752 98.2419 81.536C98.2419 80.32 98.6259 79.392 99.3939 78.752C100.162 78.112 101.09 77.792 102.178 77.792H106.018C108.77 77.792 110.146 76.384 110.146 73.568V12.032C110.146 9.216 108.77 7.808 106.018 7.808H102.178C101.09 7.808 100.162 7.488 99.3939 6.848C98.6259 6.208 98.2419 5.28 98.2419 4.064C98.2419 2.848 98.5939 1.91999 99.2979 1.27999C100.066 0.639996 101.026 0.319996 102.178 0.319996H109.09C112.482 0.319996 115.074 1.248 116.866 3.10399C118.722 4.96 119.65 7.584 119.65 10.976V74.624C119.65 78.016 118.722 80.64 116.866 82.496C115.074 84.352 112.482 85.28 109.09 85.28H102.178Z" fill="white"/>
</svg>
