<svg width="512" height="512" viewBox="0 0 512 512" fill="none" xmlns="http://www.w3.org/2000/svg">
<g clip-path="url(#clip0)">
<path fill-rule="evenodd" clip-rule="evenodd" d="M150.582 140.483L190.562 140.269L190.135 60.3136C190.076 49.2942 198.993 40.2778 210.016 40.2189L450.88 38.9334C461.899 38.8746 470.916 47.7954 470.975 58.8148L473.066 450.594C473.125 461.614 464.204 470.63 453.184 470.689L212.321 471.975C201.297 472.033 192.285 463.113 192.226 452.093L191.799 372.137L151.819 372.351L152.246 452.307C152.423 485.369 179.468 512.127 212.534 511.95L453.398 510.665C486.46 510.489 513.218 483.443 513.042 450.381L510.951 58.6014C510.774 25.5355 483.729 -1.21901 450.667 -1.04255L209.803 0.242941C176.737 0.419414 149.979 27.461 150.155 60.527L150.582 140.483Z" fill="#303030"/>
</g>
<path fill-rule="evenodd" clip-rule="evenodd" d="M247.098 188.257L275.367 159.988L369.598 254.222L275.367 348.452L247.098 320.183L293.07 274.21H34.5V234.234H293.07L247.098 188.257Z" fill="#303030"/>
<defs>
<clipPath id="clip0">
<rect width="512" height="512" fill="white"/>
</clipPath>
</defs>
</svg>
