<svg width="47" height="48" viewBox="0 0 47 48" fill="none" xmlns="http://www.w3.org/2000/svg">
<path d="M5.67241 34.845C2.11331 37.3872 0.000791352 41.4915 0 45.8657V47.8105H1.94475C6.31895 47.8097 10.4233 45.6972 12.9655 42.1381L5.67241 34.845Z" fill="#F98500"/>
<path d="M7.79955 37.2759C6.46493 38.2295 5.67279 39.7683 5.67239 41.4088V42.138H6.40162C8.0421 42.1376 9.58088 41.3455 10.5345 40.0108L11.3448 38.8966L8.91377 36.4656L7.79955 37.2759Z" fill="#FFB531"/>
<path d="M47 1.56565V0.810303C42.8209 0.811885 38.6813 1.61867 34.8076 3.18713L44.8558 13.1404C46.2692 9.44475 46.9957 5.52201 47 1.56565Z" fill="#FFB531"/>
<path d="M34.8076 3.18726C28.5389 5.7176 23.2143 10.1377 19.5729 15.8335L10.5345 29.9828L17.8276 37.2759L30.8532 29.6774C37.2731 25.9276 42.2147 20.0913 44.855 13.1405L34.8076 3.18726Z" fill="#E94F4F"/>
<path d="M14.1486 33.5968L17.8276 37.2758L30.8533 29.6772C37.2731 25.9274 42.2147 20.0912 44.855 13.1403L41.821 10.1348C32.6983 21.9497 21.4278 29.5336 14.1486 33.5968Z" fill="#E94F4F"/>
<path d="M22.3122 19.0739L20.9467 18.2018L21.6233 17.1418C21.7519 16.9392 21.884 16.7366 22.017 16.5408L23.3623 17.4441C23.2357 17.6328 23.1118 17.8228 22.9888 18.0115L22.3122 19.0739Z" fill="#F26666"/>
<path d="M14.716 27.9517L19.9092 19.8142L21.2755 20.6863L16.0823 28.8238L14.716 27.9517Z" fill="#F26666"/>
<path d="M12.1552 31.6035L5.67239 34.8449L12.9655 42.138L16.2069 35.6552L12.1552 31.6035Z" fill="#D6D6D4"/>
<path d="M37.2759 16.2068C37.2759 19.3398 34.7364 21.8793 31.6034 21.8793C28.4705 21.8793 25.931 19.3398 25.931 16.2068C25.931 13.0739 28.4705 10.5344 31.6034 10.5344C34.7364 10.5344 37.2759 13.0739 37.2759 16.2068Z" fill="#4DB7E5"/>
<path d="M29.9828 16.207H28.3621C28.3621 14.4169 29.8134 12.9656 31.6035 12.9656V14.5863C30.7084 14.5863 29.9828 15.3119 29.9828 16.207Z" fill="#9FE4ED"/>
<path d="M11.7654 16.2068C9.9473 16.206 8.21265 16.9689 6.98448 18.309L0 25.9309L8.1715 23.7025C8.64117 23.5739 9.14368 23.6629 9.54015 23.9454L12.8706 26.3246L19.3355 16.2068H11.7654Z" fill="#E94F4F"/>
<path d="M21.5869 35.0829L23.8632 38.2701C24.1454 38.6666 24.2348 39.1691 24.1062 39.6388L21.8793 47.8103L29.5012 40.8234C30.841 39.5956 31.6035 37.8618 31.6035 36.0448V29.2056C31.3522 29.3619 31.11 29.5296 30.8533 29.6772L21.5869 35.0829Z" fill="#CF3A3A"/>
<path d="M19.0153 0H17.5732V1.44211H16.1311V2.88422H17.5732V4.32633H19.0153V2.88422H20.4574V1.44211H19.0153V0Z" fill="#FFB531"/>
<path d="M7.47842 6.4895H8.92053V7.93161H7.47842V6.4895Z" fill="#FFB531"/>
<path d="M42.8101 24.5158H41.368V23.0737H39.9259V24.5158H38.4838V25.9579H39.9259V27.4001H41.368V25.9579H42.8101V24.5158Z" fill="#FFB531"/>
<path d="M33.4364 36.7737H31.9943V38.2158H30.5522V39.6579H31.9943V41.1H33.4364V39.6579H34.8785V38.2158H33.4364V36.7737Z" fill="#FFB531"/>
<path d="M34.1575 28.8423H35.5996V30.2844H34.1575V28.8423Z" fill="#FFB531"/>
<path d="M2.43106 10.8159H3.87317V12.258H2.43106V10.8159Z" fill="#FFB531"/>
<path d="M35.3311 11.9348C34.2054 16.7011 30.3733 19.0503 27.541 20.1566C28.9904 21.6542 31.1441 22.2358 33.1501 21.6716C35.1562 21.107 36.6906 19.4875 37.1461 17.4541C37.6015 15.4203 36.9047 13.3011 35.3311 11.9348V11.9348Z" fill="#4DB7E5"/>
<path d="M46.9766 2.56787C45.479 5.21178 43.4563 7.52134 41.0336 9.35451L44.855 13.1403C46.1445 9.75849 46.8615 6.18554 46.9766 2.56787Z" fill="#FFB531"/>
<path d="M10.6599 39.8322L12.9655 42.1378L16.2069 35.655L14.3543 33.8025L10.6599 39.8322Z" fill="#D6D6D4"/>
<path d="M9.67785 32.8423L8.14975 33.6059L14.2044 39.6606L14.968 38.1325L9.67785 32.8423Z" fill="#A8A8A6"/>
</svg>
