<?xml version="1.0"?>
<svg xmlns="http://www.w3.org/2000/svg" xmlns:xlink="http://www.w3.org/1999/xlink" xmlns:svgjs="http://svgjs.com/svgjs" version="1.1" width="512" height="512" x="0" y="0" viewBox="0 0 512 512" style="enable-background:new 0 0 512 512" xml:space="preserve" class=""><g><g xmlns="http://www.w3.org/2000/svg"><path d="m341.17 231.664c4.131 2.274 9.174 2.12 13.158-.405l46.014-29.141c7.882-4.994 7.884-16.863-.001-21.856l-46.013-29.142c-3.985-2.525-9.026-2.679-13.159-.404-4.131 2.274-6.698 6.615-6.698 11.332v3.512c-22.72 1.968-44.5 9.714-63.39 22.603-8.563 5.842-16.343 12.638-23.25 20.211-25.139-27.637-60.437-43.325-98.203-43.325h-17.841c-14.414 0-26.141 11.727-26.141 26.142 0 14.414 11.727 26.141 26.141 26.141h17.841c28.27 0 54.281 14.725 68.858 38.683-5.589 9.171-12.956 17.165-21.712 23.469-3.369 2.426-4.133 7.121-1.708 10.489 2.426 3.37 7.123 4.131 10.489 1.708 14.117-10.164 25.203-24.014 32.062-40.052 8.866-20.729 23.367-38.382 41.935-51.053 18.532-12.644 40.206-19.708 62.675-20.428 4.055-.13 7.274-3.454 7.274-7.511v-6.787l40.007 25.338-40.008 25.339v-6.608c0-4.244-3.638-7.668-7.857-7.507-17.98.82-35.298 6.658-50.077 16.885-14.821 10.255-26.411 24.458-33.516 41.072-18.59 43.467-61.149 71.553-108.423 71.553h-17.841c-6.127 0-11.112-4.985-11.112-11.112s4.984-11.112 11.112-11.112h17.841c9.012 0 17.952-1.261 26.572-3.747 3.988-1.15 6.289-5.315 5.138-9.302-1.15-3.989-5.323-6.289-9.302-5.138-7.267 2.096-14.806 3.159-22.408 3.159h-17.841c-14.414 0-26.141 11.727-26.141 26.141 0 14.415 11.727 26.142 26.141 26.142h17.841c38.103 0 73.481-16.19 98.219-43.322 22.47 24.657 53.318 39.926 86.624 42.811v3.511c0 4.716 2.567 9.059 6.699 11.333 4.091 2.254 9.213 2.095 13.158-.404l46.013-29.141c7.883-4.993 7.885-16.865 0-21.857l-46.013-29.143c-3.985-2.522-9.026-2.678-13.159-.403-4.131 2.274-6.698 6.615-6.698 11.332v2.155c-23.62-3.449-44.828-17.393-57.302-37.852 12.479-20.601 33.303-34.408 57.302-37.811v2.171c.001 4.715 2.568 9.057 6.7 11.331zm-115.019 8.891c-17.891-23.88-46.106-38.252-76.524-38.252h-17.841c-6.127 0-11.112-4.984-11.112-11.112s4.984-11.113 11.112-11.113h17.841c34.259 0 66.228 14.551 88.605 40.108-4.604 6.389-8.649 13.199-12.081 20.369zm115.492 69.033c4.219.187 7.857-3.279 7.857-7.507v-6.609l40.007 25.339-40.007 25.338v-6.787c0-4.057-3.219-7.381-7.274-7.511-32.747-1.048-63.324-15.563-84.783-40.032 4.58-6.355 8.628-13.172 12.082-20.393 16.986 22.558 43.529 36.858 72.118 38.162z" fill="#9a0960" data-original="#000000" style="" class=""/><path d="m437.02 74.981c-48.353-48.352-112.64-74.981-181.02-74.981s-132.667 26.629-181.02 74.981c-48.352 48.352-74.98 112.639-74.98 181.019 0 68.381 26.628 132.667 74.98 181.02 48.353 48.352 112.639 74.98 181.02 74.98 55.989 0 109.165-17.746 153.782-51.318 3.316-2.496 3.981-7.207 1.486-10.523-2.496-3.316-7.204-3.982-10.523-1.486-41.99 31.597-92.042 48.298-144.745 48.298-64.366 0-124.879-25.066-170.392-70.578-45.513-45.514-70.579-106.027-70.579-170.393 0-64.365 25.065-124.879 70.578-170.391 45.514-45.514 106.027-70.58 170.393-70.58s124.879 25.065 170.392 70.579c45.513 45.513 70.578 106.026 70.578 170.391 0 33.383-6.696 65.698-19.9 96.047-12.756 29.321-30.969 55.473-54.129 77.728-2.993 2.876-3.088 7.633-.212 10.625s7.633 3.088 10.625.212c24.6-23.639 43.945-51.419 57.498-82.569 14.032-32.251 21.148-66.584 21.148-102.042 0-68.38-26.628-132.667-74.98-181.019z" fill="#9a0960" data-original="#000000" style="" class=""/><path d="m103.469 103.469c-40.743 40.742-63.18 94.913-63.18 152.531 0 57.619 22.437 111.789 63.18 152.531s94.913 63.18 152.531 63.18 111.789-22.437 152.531-63.18c40.742-40.742 63.179-94.912 63.179-152.531 0-57.618-22.437-111.788-63.179-152.531-36.901-36.9-85.863-59.161-137.869-62.684-51.503-3.5-102.519 11.527-143.648 42.283-3.324 2.485-4.004 7.195-1.519 10.519 2.487 3.324 7.195 4.002 10.519 1.519 38.255-28.606 85.712-42.58 133.633-39.326 48.378 3.277 93.928 23.987 128.256 58.317 78.246 78.246 78.246 205.562 0 283.806-78.245 78.247-205.562 78.247-283.806 0-37.904-37.903-58.779-88.298-58.779-141.903 0-53.604 20.875-104 58.779-141.903 2.934-2.936 2.934-7.693 0-10.628-2.936-2.934-7.693-2.934-10.628 0z" fill="#9a0960" data-original="#000000" style="" class=""/></g></g></svg>
