<svg width="631" height="90" viewBox="0 0 631 90" fill="none" xmlns="http://www.w3.org/2000/svg">
<path d="M49.6276 53.3051L55.6949 59.3724L56.6062 57.549L51.4511 52.3938L49.6276 53.3051Z" fill="white"/>
<path d="M52.3328 58.4486L50.5515 56.6672C49.6103 57.5087 49.0605 58.7033 49.0344 59.9657C50.2968 59.9396 51.4914 59.3898 52.3328 58.4486Z" fill="white"/>
<path d="M91.2759 17.7354C87.6651 17.8263 84.0922 18.496 80.6932 19.7179L89.476 28.4998C90.6584 25.0335 91.2662 21.3975 91.2759 17.7354Z" fill="white"/>
<path d="M68.2261 56.2118C68.6781 56.8436 68.8217 57.6459 68.6163 58.3956L67.0302 64.2108L72.9397 58.7938C74.1852 57.6493 74.8949 56.0359 74.8966 54.3446V48.6077L66.3533 53.5911L68.2261 56.2118Z" fill="white"/>
<path d="M50.6041 40.3838C51.3534 40.1793 52.1548 40.3224 52.7871 40.7732L55.5922 42.7777L61.1337 34.1035H54.6552C52.9639 34.1052 51.3504 34.8149 50.2059 36.0604L44.7889 41.9699L50.6041 40.3838Z" fill="white"/>
<path d="M48.9482 61.6896H48.1724C47.6963 61.6896 47.3103 61.3036 47.3103 60.8275V60.0517C47.3125 58.3019 48.0449 56.6321 49.3312 55.4455L48.095 54.2104C44.8799 56.7828 43.0059 60.6756 43 64.7931V65.9999H44.2068C48.3252 65.9949 52.2193 64.1209 54.7924 60.905L53.5561 59.6687C52.3691 60.9555 50.6989 61.6879 48.9482 61.6896Z" fill="white"/>
<path d="M53.0759 51.581L57.419 55.9242L58.3304 54.1007L54.8993 50.6697L53.0759 51.581Z" fill="white"/>
<path d="M88.8088 30.2686L78.9379 20.3965C72.6652 23.0568 67.348 27.5591 63.6897 33.3077L63.438 33.7026L59.5793 39.7371L54.4473 47.7697L61.2466 54.569L64.6692 52.5721L74.5257 46.8272C74.7484 46.6972 74.9568 46.5515 75.1778 46.4172L75.3036 46.3368H75.3095C81.3983 42.5464 86.1254 36.9198 88.8088 30.2686ZM59.2438 46.669L57.7907 45.7412L63.3188 37.0877L64.7723 38.0154L59.2438 46.669ZM66.5941 35.1636L65.8743 36.2913L64.4217 35.3636L65.1415 34.2359C65.2783 34.0204 65.4189 33.8049 65.5603 33.5965L66.9915 34.5575C66.8568 34.7583 66.725 34.9603 66.5941 35.1636ZM75.7586 40.1378C71.9496 40.1378 68.8621 37.0502 68.8621 33.2412C68.8621 29.4322 71.9496 26.3447 75.7586 26.3447C79.5677 26.3447 82.6552 29.4322 82.6552 33.2412C82.651 37.0481 79.5656 40.1336 75.7586 40.1378Z" fill="white"/>
<path d="M75.7587 28.0688C72.9022 28.0688 70.5862 30.3848 70.5862 33.2413C70.5862 36.0977 72.9022 38.4137 75.7587 38.4137C78.6151 38.4137 80.9311 36.0977 80.9311 33.2413C80.9281 30.3857 78.6143 28.0718 75.7587 28.0688ZM75.7587 31.5171C74.8065 31.5171 74.0345 32.2891 74.0345 33.2413H72.3104C72.3104 31.337 73.8544 29.793 75.7587 29.793V31.5171Z" fill="white"/>
<path d="M62.8276 21.1724H64.5518V19.4483H66.2759V17.7241H64.5518V16H62.8276V17.7241H61.1035V19.4483H62.8276V21.1724Z" fill="white"/>
<path d="M50.7586 23.7585H52.4827V25.4827H50.7586V23.7585Z" fill="white"/>
<path d="M91.2759 45.3103V43.5862H89.5517V45.3103H87.8276V47.0345H89.5517V48.7586H91.2759V47.0345H93V45.3103H91.2759Z" fill="white"/>
<path d="M81.7931 59.9653H80.069V61.6895H78.3448V63.4136H80.069V65.1377H81.7931V63.4136H83.5173V61.6895H81.7931V59.9653Z" fill="white"/>
<path d="M82.6552 50.4829H84.3793V52.207H82.6552V50.4829Z" fill="white"/>
<path d="M44.7241 28.9312H46.4483V30.6553H44.7241V28.9312Z" fill="white"/>
<path d="M26.8089 85.28C23.4809 85.28 20.8889 84.352 19.0329 82.496C17.2409 80.64 16.3449 78.016 16.3449 74.624V10.976C16.3449 7.584 17.2409 4.96 19.0329 3.10399C20.8889 1.248 23.4809 0.319996 26.8089 0.319996H33.7209C34.8729 0.319996 35.8329 0.639996 36.6009 1.27999C37.3689 1.91999 37.7529 2.848 37.7529 4.064C37.7529 5.28 37.3689 6.208 36.6009 6.848C35.8329 7.488 34.8729 7.808 33.7209 7.808H29.9769C28.5689 7.808 27.5129 8.16 26.8089 8.86399C26.1689 9.504 25.8489 10.56 25.8489 12.032V73.568C25.8489 75.04 26.1689 76.096 26.8089 76.736C27.5129 77.44 28.5689 77.792 29.9769 77.792H33.7209C34.8729 77.792 35.8329 78.112 36.6009 78.752C37.3689 79.392 37.7529 80.32 37.7529 81.536C37.7529 82.752 37.3689 83.68 36.6009 84.32C35.8329 84.96 34.8729 85.28 33.7209 85.28H26.8089ZM102.178 85.28C101.026 85.28 100.066 84.96 99.2979 84.32C98.5939 83.68 98.2419 82.752 98.2419 81.536C98.2419 80.32 98.6259 79.392 99.3939 78.752C100.162 78.112 101.09 77.792 102.178 77.792H106.018C108.77 77.792 110.146 76.384 110.146 73.568V12.032C110.146 9.216 108.77 7.808 106.018 7.808H102.178C101.09 7.808 100.162 7.488 99.3939 6.848C98.6259 6.208 98.2419 5.28 98.2419 4.064C98.2419 2.848 98.5939 1.91999 99.2979 1.27999C100.066 0.639996 101.026 0.319996 102.178 0.319996H109.09C112.482 0.319996 115.074 1.248 116.866 3.10399C118.722 4.96 119.65 7.584 119.65 10.976V74.624C119.65 78.016 118.722 80.64 116.866 82.496C115.074 84.352 112.482 85.28 109.09 85.28H102.178Z" fill="white"/>
<path d="M171.944 72.672C169 72.672 166.184 72.32 163.496 71.616C160.872 70.912 158.536 69.92 156.488 68.64C155.336 67.872 154.504 67.168 153.992 66.528C153.544 65.824 153.32 64.992 153.32 64.032C153.32 63.2 153.544 62.528 153.992 62.016C154.504 61.44 155.144 61.152 155.912 61.152C156.68 61.152 157.8 61.632 159.272 62.592C161.192 63.744 163.08 64.672 164.936 65.376C166.856 66.016 169.224 66.336 172.04 66.336C175.496 66.336 178.184 65.728 180.104 64.512C182.024 63.296 182.984 61.536 182.984 59.232C182.984 57.824 182.632 56.704 181.928 55.872C181.224 54.976 180.008 54.208 178.28 53.568C176.552 52.864 174.024 52.16 170.696 51.456C165.064 50.24 161.032 48.608 158.6 46.56C156.168 44.512 154.952 41.728 154.952 38.208C154.952 35.456 155.72 33.024 157.256 30.912C158.792 28.8 160.904 27.136 163.592 25.92C166.344 24.704 169.448 24.096 172.904 24.096C175.4 24.096 177.8 24.448 180.104 25.152C182.472 25.792 184.552 26.72 186.344 27.936C188.52 29.472 189.608 31.072 189.608 32.736C189.608 33.568 189.352 34.272 188.84 34.848C188.328 35.424 187.72 35.712 187.016 35.712C186.248 35.712 185.096 35.168 183.56 34.08C181.768 32.928 180.072 32.032 178.472 31.392C176.872 30.752 174.888 30.432 172.52 30.432C169.512 30.432 167.08 31.104 165.224 32.448C163.432 33.792 162.536 35.584 162.536 37.824C162.536 39.232 162.856 40.384 163.496 41.28C164.2 42.112 165.32 42.88 166.856 43.584C168.456 44.224 170.728 44.864 173.672 45.504C178.024 46.464 181.384 47.52 183.752 48.672C186.184 49.824 187.912 51.232 188.936 52.896C189.96 54.56 190.472 56.672 190.472 59.232C190.472 63.264 188.776 66.528 185.384 69.024C181.992 71.456 177.512 72.672 171.944 72.672ZM249.269 65.856C250.293 66.816 250.805 67.84 250.805 68.928C250.805 69.888 250.453 70.72 249.749 71.424C249.109 72.128 248.309 72.48 247.349 72.48C246.517 72.48 245.653 72.096 244.757 71.328L219.701 49.728V68.64C219.701 69.856 219.317 70.816 218.549 71.52C217.845 72.16 216.949 72.48 215.861 72.48C214.709 72.48 213.749 72.16 212.981 71.52C212.277 70.816 211.925 69.856 211.925 68.64V7.68C211.925 6.464 212.277 5.536 212.981 4.89599C213.749 4.192 214.709 3.84 215.861 3.84C216.949 3.84 217.845 4.192 218.549 4.89599C219.317 5.536 219.701 6.464 219.701 7.68V46.656L242.645 25.632C243.413 24.864 244.277 24.48 245.237 24.48C246.197 24.48 247.029 24.832 247.733 25.536C248.437 26.24 248.789 27.072 248.789 28.032C248.789 29.12 248.341 30.08 247.445 30.912L228.533 47.808L249.269 65.856ZM302.283 26.688C302.987 25.152 304.107 24.384 305.643 24.384C306.603 24.384 307.467 24.704 308.236 25.344C309.003 25.984 309.387 26.784 309.387 27.744C309.387 28.32 309.259 28.832 309.003 29.28L282.027 87.456C281.707 88.16 281.227 88.704 280.587 89.088C280.011 89.472 279.403 89.664 278.763 89.664C277.803 89.664 276.939 89.344 276.171 88.704C275.467 88.128 275.115 87.36 275.115 86.4C275.115 85.888 275.243 85.376 275.499 84.864L282.219 70.368L263.211 29.28C262.955 28.832 262.827 28.352 262.827 27.84C262.827 26.88 263.243 26.048 264.075 25.344C264.971 24.64 265.931 24.288 266.955 24.288C267.595 24.288 268.203 24.48 268.779 24.864C269.419 25.248 269.899 25.792 270.219 26.496L286.251 62.496L302.283 26.688ZM350.636 24.288C353.324 24.096 354.668 25.184 354.668 27.552C354.668 28.576 354.38 29.408 353.804 30.048C353.228 30.624 352.236 30.976 350.828 31.104L347.948 31.392C343.66 31.776 340.46 33.312 338.348 36C336.3 38.624 335.276 41.728 335.276 45.312V68.64C335.276 69.92 334.924 70.88 334.22 71.52C333.516 72.16 332.588 72.48 331.436 72.48C330.284 72.48 329.324 72.16 328.556 71.52C327.852 70.816 327.5 69.856 327.5 68.64V28.128C327.5 26.912 327.884 25.984 328.652 25.344C329.42 24.64 330.348 24.288 331.436 24.288C332.46 24.288 333.324 24.64 334.028 25.344C334.732 25.984 335.084 26.88 335.084 28.032V33.408C336.428 30.592 338.316 28.448 340.748 26.976C343.244 25.504 346.092 24.64 349.292 24.384L350.636 24.288ZM389.398 72.672C384.982 72.672 381.078 71.68 377.686 69.696C374.358 67.712 371.766 64.896 369.91 61.248C368.118 57.536 367.222 53.248 367.222 48.384C367.222 43.52 368.118 39.264 369.91 35.616C371.766 31.904 374.358 29.056 377.686 27.072C381.078 25.088 384.982 24.096 389.398 24.096C393.814 24.096 397.718 25.088 401.11 27.072C404.502 29.056 407.094 31.904 408.886 35.616C410.742 39.264 411.67 43.52 411.67 48.384C411.67 53.248 410.742 57.536 408.886 61.248C407.094 64.896 404.502 67.712 401.11 69.696C397.718 71.68 393.814 72.672 389.398 72.672ZM389.398 66.24C394.006 66.24 397.526 64.736 399.958 61.728C402.454 58.656 403.702 54.208 403.702 48.384C403.702 42.688 402.454 38.304 399.958 35.232C397.462 32.096 393.942 30.528 389.398 30.528C384.854 30.528 381.334 32.096 378.838 35.232C376.342 38.304 375.094 42.688 375.094 48.384C375.094 54.144 376.31 58.56 378.742 61.632C381.238 64.704 384.79 66.24 389.398 66.24ZM452.152 72.672C447.8 72.672 443.928 71.68 440.536 69.696C437.208 67.712 434.616 64.896 432.76 61.248C430.968 57.6 430.072 53.376 430.072 48.576C430.072 43.776 431 39.52 432.856 35.808C434.776 32.096 437.432 29.216 440.824 27.168C444.216 25.12 448.12 24.096 452.536 24.096C454.968 24.096 457.368 24.448 459.736 25.152C462.168 25.792 464.28 26.752 466.072 28.032C467.224 28.8 468.024 29.568 468.472 30.336C468.984 31.04 469.24 31.84 469.24 32.736C469.24 33.632 468.984 34.368 468.472 34.944C468.024 35.52 467.416 35.808 466.648 35.808C466.2 35.808 465.72 35.68 465.208 35.424C464.696 35.168 464.248 34.912 463.864 34.656C463.544 34.4 463.32 34.24 463.192 34.176C461.528 33.088 459.928 32.224 458.392 31.584C456.92 30.944 455.096 30.624 452.92 30.624C448.248 30.624 444.6 32.224 441.976 35.424C439.416 38.56 438.136 42.944 438.136 48.576C438.136 54.208 439.416 58.56 441.976 61.632C444.6 64.704 448.248 66.24 452.92 66.24C455.096 66.24 456.952 65.92 458.488 65.28C460.088 64.64 461.688 63.776 463.288 62.688C463.992 62.24 464.664 61.856 465.304 61.536C465.944 61.216 466.488 61.056 466.936 61.056C467.64 61.056 468.216 61.344 468.664 61.92C469.176 62.496 469.432 63.232 469.432 64.128C469.432 64.96 469.208 65.728 468.76 66.432C468.312 67.072 467.48 67.808 466.264 68.64C464.472 69.856 462.296 70.848 459.736 71.616C457.24 72.32 454.712 72.672 452.152 72.672ZM525.738 65.856C526.762 66.816 527.274 67.84 527.274 68.928C527.274 69.888 526.922 70.72 526.218 71.424C525.578 72.128 524.778 72.48 523.818 72.48C522.986 72.48 522.122 72.096 521.226 71.328L496.17 49.728V68.64C496.17 69.856 495.786 70.816 495.018 71.52C494.314 72.16 493.418 72.48 492.33 72.48C491.178 72.48 490.218 72.16 489.45 71.52C488.746 70.816 488.394 69.856 488.394 68.64V7.68C488.394 6.464 488.746 5.536 489.45 4.89599C490.218 4.192 491.178 3.84 492.33 3.84C493.418 3.84 494.314 4.192 495.018 4.89599C495.786 5.536 496.17 6.464 496.17 7.68V46.656L519.114 25.632C519.882 24.864 520.746 24.48 521.706 24.48C522.666 24.48 523.498 24.832 524.202 25.536C524.906 26.24 525.258 27.072 525.258 28.032C525.258 29.12 524.81 30.08 523.914 30.912L505.002 47.808L525.738 65.856ZM581.342 61.152C582.046 61.152 582.654 61.44 583.166 62.016C583.678 62.592 583.934 63.328 583.934 64.224C583.934 65.824 582.814 67.296 580.574 68.64C578.27 69.984 575.838 71.008 573.278 71.712C570.718 72.352 568.222 72.672 565.79 72.672C558.558 72.672 552.83 70.528 548.606 66.24C544.446 61.952 542.366 56.032 542.366 48.48C542.366 43.68 543.294 39.456 545.15 35.808C547.006 32.096 549.598 29.216 552.926 27.168C556.318 25.12 560.158 24.096 564.446 24.096C570.526 24.096 575.358 26.08 578.942 30.048C582.526 34.016 584.318 39.392 584.318 46.176C584.318 47.456 584.062 48.384 583.55 48.96C583.038 49.536 582.206 49.824 581.054 49.824H550.142C550.718 60.832 555.934 66.336 565.79 66.336C568.286 66.336 570.43 66.016 572.222 65.376C574.014 64.672 575.934 63.744 577.982 62.592C579.646 61.632 580.766 61.152 581.342 61.152ZM564.542 30.144C560.446 30.144 557.15 31.424 554.654 33.984C552.222 36.544 550.782 40.16 550.334 44.832H577.502C577.374 40.096 576.19 36.48 573.95 33.984C571.71 31.424 568.574 30.144 564.542 30.144ZM626.694 66.336C628.934 66.528 630.054 67.552 630.054 69.408C630.054 70.496 629.638 71.328 628.806 71.904C628.038 72.416 626.854 72.608 625.254 72.48L622.662 72.288C617.542 71.904 613.766 70.368 611.334 67.68C608.902 64.992 607.686 60.928 607.686 55.488V31.392H601.254C600.166 31.392 599.302 31.136 598.662 30.624C598.086 30.048 597.798 29.312 597.798 28.416C597.798 27.456 598.086 26.688 598.662 26.112C599.302 25.536 600.166 25.248 601.254 25.248H607.686V14.4C607.686 13.184 608.038 12.256 608.742 11.616C609.446 10.912 610.406 10.56 611.622 10.56C612.774 10.56 613.702 10.912 614.406 11.616C615.11 12.256 615.462 13.184 615.462 14.4V25.248H626.118C627.142 25.248 627.942 25.536 628.518 26.112C629.158 26.688 629.478 27.456 629.478 28.416C629.478 29.312 629.158 30.048 628.518 30.624C627.942 31.136 627.142 31.392 626.118 31.392H615.462V55.872C615.462 59.392 616.166 61.952 617.574 63.552C619.046 65.088 621.222 65.952 624.102 66.144L626.694 66.336Z" fill="white"/>
</svg>
