<svg width="181" height="181" viewBox="0 0 181 181" fill="none" xmlns="http://www.w3.org/2000/svg">
<rect width="181" height="181" rx="21" fill="#303030" fill-opacity="0.9"/>
<path d="M115.264 39.5208C112.396 38.2679 109.055 39.5772 107.802 42.4451C106.549 45.3131 107.858 48.6536 110.726 49.9066C129.164 57.9615 141.334 76.1976 141.334 96.6663C141.334 124.832 118.498 147.667 90.3336 147.667C62.166 147.667 39.3332 124.834 39.3332 96.6663C39.3332 76.2021 51.499 57.966 69.9314 49.9058C72.7988 48.652 74.107 45.311 72.853 42.4435C71.5992 39.5761 68.2582 38.2679 65.3907 39.5219C42.8685 49.37 28 71.6577 28 96.666C28 131.093 55.907 159 90.3339 159C124.757 159 152.668 131.091 152.668 96.666C152.668 71.6519 137.793 49.3631 115.264 39.5208Z" fill="white"/>
<path d="M90.3315 85.3339C93.4612 85.3339 95.9982 82.7969 95.9982 79.6673V28.6669C95.9984 25.537 93.4612 23 90.3315 23C87.2019 23 84.6649 25.537 84.6649 28.6666V79.667C84.6649 82.7966 87.2019 85.3339 90.3315 85.3339Z" fill="white"/>
</svg>
